<?xml version="1.0" encoding="UTF-8" standalone="no"?>
<!-- Created with Inkscape (http://www.inkscape.org/) -->

<svg
   width="3.1446545in"
   height="0.65143472in"
   viewBox="0 0 3.1446545 0.65143472"
   id="SVGRoot"
   version="1.1"
   xml:space="preserve"
   xmlns="http://www.w3.org/2000/svg"
   xmlns:svg="http://www.w3.org/2000/svg"><defs
     id="defs1"><clipPath
       clipPathUnits="userSpaceOnUse"
       id="clipPath41"><path
         id="path42"
         style="fill:#ff0000;fill-opacity:1;fill-rule:nonzero;stroke:none;stroke-width:0.0130629"
         d="M 0.1440929,0.57431397 V 1.3433446 H 0.645486 C 0.638727,1.3350846 0.6329433,1.3260226 0.6294635,1.3158916 0.6265455,1.3074016 0.6263905,1.3041856 0.6261975,1.2977006 h -0.008624 -2.812e-5 c -0.0401384,0 -0.0401384,-0.040541 0,-0.040541 h 0.0138539 c -0.003411,-0.00749 -0.006709,-0.015034 -0.009542,-0.022758 -0.00324,-0.00883 -0.002433,-0.0119 6.124e-4,-0.011915 0.009949,-5.21e-5 0.0438173,0.032374 0.0387296,0.00207 -5.625e-5,-3.23e-4 -2.9969e-4,-0.00126 -1.5323e-4,-9.698e-4 0.001229,0.00247 0.002122,0.00508 0.00324,0.0076 0.002559,0.00576 0.005088,0.011547 0.007731,0.017273 0.003544,0.0011 0.007009,0.00287 0.0109198,0.00628 0.004708,0.00411 0.007239,0.01016 0.009057,0.016278 0.002464,0.00209 0.004842,0.00433 0.007169,0.00661 0.009465,0.0098 0.0156887,0.021796 0.0185229,0.035107 6.1333e-4,0.00288 9.201e-4,0.00582 0.001378,0.00873 6.9687e-4,0.00728 9.5125e-4,0.014609 5.6156e-4,0.021891 H 3.361612 V 0.57431396 Z" /></clipPath><clipPath
       clipPathUnits="userSpaceOnUse"
       id="clipPath42"><path
         id="path43"
         style="fill:#ff0000;fill-opacity:1;fill-rule:nonzero;stroke:none;stroke-width:0.0130629"
         d="M 0.1440929,0.57431397 V 1.3433446 H 0.645486 C 0.638727,1.3350846 0.6329433,1.3260226 0.6294635,1.3158916 0.6265455,1.3074016 0.6263905,1.3041856 0.6261975,1.2977006 h -0.008624 -2.812e-5 c -0.0401384,0 -0.0401384,-0.040541 0,-0.040541 h 0.0138539 c -0.003411,-0.00749 -0.006709,-0.015034 -0.009542,-0.022758 -0.00324,-0.00883 -0.002433,-0.0119 6.124e-4,-0.011915 0.009949,-5.21e-5 0.0438173,0.032374 0.0387296,0.00207 -5.625e-5,-3.23e-4 -2.9969e-4,-0.00126 -1.5323e-4,-9.698e-4 0.001229,0.00247 0.002122,0.00508 0.00324,0.0076 0.002559,0.00576 0.005088,0.011547 0.007731,0.017273 0.003544,0.0011 0.007009,0.00287 0.0109198,0.00628 0.004708,0.00411 0.007239,0.01016 0.009057,0.016278 0.002464,0.00209 0.004842,0.00433 0.007169,0.00661 0.009465,0.0098 0.0156887,0.021796 0.0185229,0.035107 6.1333e-4,0.00288 9.201e-4,0.00582 0.001378,0.00873 6.9687e-4,0.00728 9.5125e-4,0.014609 5.6156e-4,0.021891 H 3.361612 V 0.57431396 Z" /></clipPath><clipPath
       clipPathUnits="userSpaceOnUse"
       id="clipPath51"><path
         id="path52"
         style="fill:#ff0000;fill-opacity:1;fill-rule:nonzero;stroke:none;stroke-width:0.0130629"
         d="M 0.1440929,0.57431397 V 1.3433446 H 0.645486 C 0.638727,1.3350846 0.6329433,1.3260226 0.6294635,1.3158916 0.6265455,1.3074016 0.6263905,1.3041856 0.6261975,1.2977006 h -0.008624 -2.812e-5 c -0.0401384,0 -0.0401384,-0.040541 0,-0.040541 h 0.0138539 c -0.003411,-0.00749 -0.006709,-0.015034 -0.009542,-0.022758 -0.00324,-0.00883 -0.002433,-0.0119 6.124e-4,-0.011915 0.009949,-5.21e-5 0.0438173,0.032374 0.0387296,0.00207 -5.625e-5,-3.23e-4 -2.9969e-4,-0.00126 -1.5323e-4,-9.698e-4 0.001229,0.00247 0.002122,0.00508 0.00324,0.0076 0.002559,0.00576 0.005088,0.011547 0.007731,0.017273 0.003544,0.0011 0.007009,0.00287 0.0109198,0.00628 0.004708,0.00411 0.007239,0.01016 0.009057,0.016278 0.002464,0.00209 0.004842,0.00433 0.007169,0.00661 0.009465,0.0098 0.0156887,0.021796 0.0185229,0.035107 6.1333e-4,0.00288 9.201e-4,0.00582 0.001378,0.00873 6.9687e-4,0.00728 9.5125e-4,0.014609 5.6156e-4,0.021891 H 3.361612 V 0.57431396 Z" /></clipPath><clipPath
       clipPathUnits="userSpaceOnUse"
       id="clipPath53"><path
         id="path54"
         style="fill:#ff0000;fill-opacity:1;fill-rule:nonzero;stroke:none;stroke-width:0.0130629"
         d="M 0.1440929,0.57431397 V 1.3433446 H 0.645486 C 0.638727,1.3350846 0.6329433,1.3260226 0.6294635,1.3158916 0.6265455,1.3074016 0.6263905,1.3041856 0.6261975,1.2977006 h -0.008624 -2.812e-5 c -0.0401384,0 -0.0401384,-0.040541 0,-0.040541 h 0.0138539 c -0.003411,-0.00749 -0.006709,-0.015034 -0.009542,-0.022758 -0.00324,-0.00883 -0.002433,-0.0119 6.124e-4,-0.011915 0.009949,-5.21e-5 0.0438173,0.032374 0.0387296,0.00207 -5.625e-5,-3.23e-4 -2.9969e-4,-0.00126 -1.5323e-4,-9.698e-4 0.001229,0.00247 0.002122,0.00508 0.00324,0.0076 0.002559,0.00576 0.005088,0.011547 0.007731,0.017273 0.003544,0.0011 0.007009,0.00287 0.0109198,0.00628 0.004708,0.00411 0.007239,0.01016 0.009057,0.016278 0.002464,0.00209 0.004842,0.00433 0.007169,0.00661 0.009465,0.0098 0.0156887,0.021796 0.0185229,0.035107 6.1333e-4,0.00288 9.201e-4,0.00582 0.001378,0.00873 6.9687e-4,0.00728 9.5125e-4,0.014609 5.6156e-4,0.021891 H 3.361612 V 0.57431396 Z" /></clipPath><clipPath
       clipPathUnits="userSpaceOnUse"
       id="clipPath55"><path
         id="path56"
         style="fill:#ff0000;fill-opacity:1;fill-rule:nonzero;stroke:none;stroke-width:0.0130629"
         d="M 0.1440929,0.57431397 V 1.3433446 H 0.645486 C 0.638727,1.3350846 0.6329433,1.3260226 0.6294635,1.3158916 0.6265455,1.3074016 0.6263905,1.3041856 0.6261975,1.2977006 h -0.008624 -2.812e-5 c -0.0401384,0 -0.0401384,-0.040541 0,-0.040541 h 0.0138539 c -0.003411,-0.00749 -0.006709,-0.015034 -0.009542,-0.022758 -0.00324,-0.00883 -0.002433,-0.0119 6.124e-4,-0.011915 0.009949,-5.21e-5 0.0438173,0.032374 0.0387296,0.00207 -5.625e-5,-3.23e-4 -2.9969e-4,-0.00126 -1.5323e-4,-9.698e-4 0.001229,0.00247 0.002122,0.00508 0.00324,0.0076 0.002559,0.00576 0.005088,0.011547 0.007731,0.017273 0.003544,0.0011 0.007009,0.00287 0.0109198,0.00628 0.004708,0.00411 0.007239,0.01016 0.009057,0.016278 0.002464,0.00209 0.004842,0.00433 0.007169,0.00661 0.009465,0.0098 0.0156887,0.021796 0.0185229,0.035107 6.1333e-4,0.00288 9.201e-4,0.00582 0.001378,0.00873 6.9687e-4,0.00728 9.5125e-4,0.014609 5.6156e-4,0.021891 H 3.361612 V 0.57431396 Z" /></clipPath><clipPath
       clipPathUnits="userSpaceOnUse"
       id="clipPath57"><path
         id="path58"
         style="fill:#ff0000;fill-opacity:1;fill-rule:nonzero;stroke:none;stroke-width:0.0130629"
         d="M 0.1440929,0.57431397 V 1.3433446 H 0.645486 C 0.638727,1.3350846 0.6329433,1.3260226 0.6294635,1.3158916 0.6265455,1.3074016 0.6263905,1.3041856 0.6261975,1.2977006 h -0.008624 -2.812e-5 c -0.0401384,0 -0.0401384,-0.040541 0,-0.040541 h 0.0138539 c -0.003411,-0.00749 -0.006709,-0.015034 -0.009542,-0.022758 -0.00324,-0.00883 -0.002433,-0.0119 6.124e-4,-0.011915 0.009949,-5.21e-5 0.0438173,0.032374 0.0387296,0.00207 -5.625e-5,-3.23e-4 -2.9969e-4,-0.00126 -1.5323e-4,-9.698e-4 0.001229,0.00247 0.002122,0.00508 0.00324,0.0076 0.002559,0.00576 0.005088,0.011547 0.007731,0.017273 0.003544,0.0011 0.007009,0.00287 0.0109198,0.00628 0.004708,0.00411 0.007239,0.01016 0.009057,0.016278 0.002464,0.00209 0.004842,0.00433 0.007169,0.00661 0.009465,0.0098 0.0156887,0.021796 0.0185229,0.035107 6.1333e-4,0.00288 9.201e-4,0.00582 0.001378,0.00873 6.9687e-4,0.00728 9.5125e-4,0.014609 5.6156e-4,0.021891 H 3.361612 V 0.57431396 Z" /></clipPath><clipPath
       clipPathUnits="userSpaceOnUse"
       id="clipPath59"><path
         id="path60"
         style="fill:#ff0000;fill-opacity:1;fill-rule:nonzero;stroke:none;stroke-width:0.0130629"
         d="M 0.1440929,0.57431397 V 1.3433446 H 0.645486 C 0.638727,1.3350846 0.6329433,1.3260226 0.6294635,1.3158916 0.6265455,1.3074016 0.6263905,1.3041856 0.6261975,1.2977006 h -0.008624 -2.812e-5 c -0.0401384,0 -0.0401384,-0.040541 0,-0.040541 h 0.0138539 c -0.003411,-0.00749 -0.006709,-0.015034 -0.009542,-0.022758 -0.00324,-0.00883 -0.002433,-0.0119 6.124e-4,-0.011915 0.009949,-5.21e-5 0.0438173,0.032374 0.0387296,0.00207 -5.625e-5,-3.23e-4 -2.9969e-4,-0.00126 -1.5323e-4,-9.698e-4 0.001229,0.00247 0.002122,0.00508 0.00324,0.0076 0.002559,0.00576 0.005088,0.011547 0.007731,0.017273 0.003544,0.0011 0.007009,0.00287 0.0109198,0.00628 0.004708,0.00411 0.007239,0.01016 0.009057,0.016278 0.002464,0.00209 0.004842,0.00433 0.007169,0.00661 0.009465,0.0098 0.0156887,0.021796 0.0185229,0.035107 6.1333e-4,0.00288 9.201e-4,0.00582 0.001378,0.00873 6.9687e-4,0.00728 9.5125e-4,0.014609 5.6156e-4,0.021891 H 3.361612 V 0.57431396 Z" /></clipPath><clipPath
       clipPathUnits="userSpaceOnUse"
       id="clipPath61"><path
         id="path62"
         style="fill:#ff0000;fill-opacity:1;fill-rule:nonzero;stroke:none;stroke-width:0.0130629"
         d="M 0.1440929,0.57431397 V 1.3433446 H 0.645486 C 0.638727,1.3350846 0.6329433,1.3260226 0.6294635,1.3158916 0.6265455,1.3074016 0.6263905,1.3041856 0.6261975,1.2977006 h -0.008624 -2.812e-5 c -0.0401384,0 -0.0401384,-0.040541 0,-0.040541 h 0.0138539 c -0.003411,-0.00749 -0.006709,-0.015034 -0.009542,-0.022758 -0.00324,-0.00883 -0.002433,-0.0119 6.124e-4,-0.011915 0.009949,-5.21e-5 0.0438173,0.032374 0.0387296,0.00207 -5.625e-5,-3.23e-4 -2.9969e-4,-0.00126 -1.5323e-4,-9.698e-4 0.001229,0.00247 0.002122,0.00508 0.00324,0.0076 0.002559,0.00576 0.005088,0.011547 0.007731,0.017273 0.003544,0.0011 0.007009,0.00287 0.0109198,0.00628 0.004708,0.00411 0.007239,0.01016 0.009057,0.016278 0.002464,0.00209 0.004842,0.00433 0.007169,0.00661 0.009465,0.0098 0.0156887,0.021796 0.0185229,0.035107 6.1333e-4,0.00288 9.201e-4,0.00582 0.001378,0.00873 6.9687e-4,0.00728 9.5125e-4,0.014609 5.6156e-4,0.021891 H 3.361612 V 0.57431396 Z" /></clipPath><clipPath
       clipPathUnits="userSpaceOnUse"
       id="clipPath63"><path
         id="path64"
         style="fill:#ff0000;fill-opacity:1;fill-rule:nonzero;stroke:none;stroke-width:0.0130629"
         d="M 0.1440929,0.57431397 V 1.3433446 H 0.645486 C 0.638727,1.3350846 0.6329433,1.3260226 0.6294635,1.3158916 0.6265455,1.3074016 0.6263905,1.3041856 0.6261975,1.2977006 h -0.008624 -2.812e-5 c -0.0401384,0 -0.0401384,-0.040541 0,-0.040541 h 0.0138539 c -0.003411,-0.00749 -0.006709,-0.015034 -0.009542,-0.022758 -0.00324,-0.00883 -0.002433,-0.0119 6.124e-4,-0.011915 0.009949,-5.21e-5 0.0438173,0.032374 0.0387296,0.00207 -5.625e-5,-3.23e-4 -2.9969e-4,-0.00126 -1.5323e-4,-9.698e-4 0.001229,0.00247 0.002122,0.00508 0.00324,0.0076 0.002559,0.00576 0.005088,0.011547 0.007731,0.017273 0.003544,0.0011 0.007009,0.00287 0.0109198,0.00628 0.004708,0.00411 0.007239,0.01016 0.009057,0.016278 0.002464,0.00209 0.004842,0.00433 0.007169,0.00661 0.009465,0.0098 0.0156887,0.021796 0.0185229,0.035107 6.1333e-4,0.00288 9.201e-4,0.00582 0.001378,0.00873 6.9687e-4,0.00728 9.5125e-4,0.014609 5.6156e-4,0.021891 H 3.361612 V 0.57431396 Z" /></clipPath><clipPath
       clipPathUnits="userSpaceOnUse"
       id="clipPath65"><path
         id="path66"
         style="fill:#ff0000;fill-opacity:1;fill-rule:nonzero;stroke:none;stroke-width:0.0130629"
         d="M 0.1440929,0.57431397 V 1.3433446 H 0.645486 C 0.638727,1.3350846 0.6329433,1.3260226 0.6294635,1.3158916 0.6265455,1.3074016 0.6263905,1.3041856 0.6261975,1.2977006 h -0.008624 -2.812e-5 c -0.0401384,0 -0.0401384,-0.040541 0,-0.040541 h 0.0138539 c -0.003411,-0.00749 -0.006709,-0.015034 -0.009542,-0.022758 -0.00324,-0.00883 -0.002433,-0.0119 6.124e-4,-0.011915 0.009949,-5.21e-5 0.0438173,0.032374 0.0387296,0.00207 -5.625e-5,-3.23e-4 -2.9969e-4,-0.00126 -1.5323e-4,-9.698e-4 0.001229,0.00247 0.002122,0.00508 0.00324,0.0076 0.002559,0.00576 0.005088,0.011547 0.007731,0.017273 0.003544,0.0011 0.007009,0.00287 0.0109198,0.00628 0.004708,0.00411 0.007239,0.01016 0.009057,0.016278 0.002464,0.00209 0.004842,0.00433 0.007169,0.00661 0.009465,0.0098 0.0156887,0.021796 0.0185229,0.035107 6.1333e-4,0.00288 9.201e-4,0.00582 0.001378,0.00873 6.9687e-4,0.00728 9.5125e-4,0.014609 5.6156e-4,0.021891 H 3.361612 V 0.57431396 Z" /></clipPath><clipPath
       clipPathUnits="userSpaceOnUse"
       id="clipPath67"><path
         id="path68"
         style="fill:#ff0000;fill-opacity:1;fill-rule:nonzero;stroke:none;stroke-width:0.0130629"
         d="M 0.1440929,0.57431397 V 1.3433446 H 0.645486 C 0.638727,1.3350846 0.6329433,1.3260226 0.6294635,1.3158916 0.6265455,1.3074016 0.6263905,1.3041856 0.6261975,1.2977006 h -0.008624 -2.812e-5 c -0.0401384,0 -0.0401384,-0.040541 0,-0.040541 h 0.0138539 c -0.003411,-0.00749 -0.006709,-0.015034 -0.009542,-0.022758 -0.00324,-0.00883 -0.002433,-0.0119 6.124e-4,-0.011915 0.009949,-5.21e-5 0.0438173,0.032374 0.0387296,0.00207 -5.625e-5,-3.23e-4 -2.9969e-4,-0.00126 -1.5323e-4,-9.698e-4 0.001229,0.00247 0.002122,0.00508 0.00324,0.0076 0.002559,0.00576 0.005088,0.011547 0.007731,0.017273 0.003544,0.0011 0.007009,0.00287 0.0109198,0.00628 0.004708,0.00411 0.007239,0.01016 0.009057,0.016278 0.002464,0.00209 0.004842,0.00433 0.007169,0.00661 0.009465,0.0098 0.0156887,0.021796 0.0185229,0.035107 6.1333e-4,0.00288 9.201e-4,0.00582 0.001378,0.00873 6.9687e-4,0.00728 9.5125e-4,0.014609 5.6156e-4,0.021891 H 3.361612 V 0.57431396 Z" /></clipPath></defs><g
     id="layer1"
     transform="translate(-0.19104284,-0.69715246)"><g
       id="g168"
       transform="translate(0.01202927,0.00523132)"><g
         id="g173"><g
           id="g184"><path
             fill="#111111"
             d="m 0.99541118,1.1361291 q 0,0.030252 -0.009387,0.048517 -0.00933,0.018265 -0.0247109,0.018265 -0.016342,0 -0.016342,-0.016794 l 4.5237e-4,-0.013967 q 0,-0.010065 -0.005259,-0.015833 -0.005315,-0.00577 -0.0149283,-0.00577 -0.009104,0 -0.0146456,0.00577 -0.005542,0.00577 -0.005542,0.015381 0,0.015833 0.0149283,0.026407 0.0148718,0.010574 0.0374904,0.010574 0.0177556,0 0.0336452,-0.00792 0.015833,-0.00792 0.0254458,-0.021883 0.00865,-0.012497 0.012271,-0.030479 0.00362,-0.018038 0.00362,-0.049309 V 0.80256068 l 0.039413,-0.003845 v -0.003845 H 0.95599865 v 0.003845 l 0.039413,0.003845 z"
             id="path1-2"
             style="stroke-width:0.00565466"
             clip-path="url(#clipPath67)" /><path
             fill="#111111"
             d="m 1.3260957,0.82416147 q 0,-0.0115355 -0.00288,-0.015833 -0.00288,-0.004354 -0.011535,-0.005768 l -0.034098,-0.003845 v -0.003845 h 0.1052332 v 0.003845 l -0.034606,0.003845 q -0.00865,0.001414 -0.011536,0.005768 -0.00288,0.004298 -0.00288,0.015833 V 1.0087296 q 0,0.030309 -0.00458,0.050496 -0.00452,0.020187 -0.014137,0.034606 -0.013006,0.018717 -0.035568,0.029574 -0.022619,0.0108 -0.049987,0.0108 -0.02211,0 -0.043767,-0.00724 -0.021601,-0.00718 -0.03602,-0.019678 -0.014928,-0.013006 -0.021148,-0.033193 -0.00628,-0.020187 -0.00628,-0.055755 V 0.80256068 l -0.039413,-0.003845 v -0.003845 h 0.1182389 v 0.003845 l -0.041788,0.003845 V 1.0342321 q 0,0.035059 0.00645,0.053832 0.0065,0.018717 0.021883,0.027877 0.0082,0.00481 0.020187,0.00769 0.012044,0.00288 0.024994,0.00288 0.024032,0 0.044219,-0.00961 0.020187,-0.00961 0.032232,-0.027425 0.0091,-0.013458 0.012949,-0.03144 0.00385,-0.018038 0.00385,-0.046877 z"
             id="path2-2"
             style="stroke-width:0.00565466"
             clip-path="url(#clipPath65)" /><path
             fill="#111111"
             d="m 1.7120828,0.79487034 v 0.003845 l -0.034606,0.003845 q -0.011535,0.001414 -0.015381,0.005768 -0.00385,0.004298 -0.00385,0.015833 V 1.1342065 h -0.0048 L 1.4376056,0.82800664 H 1.435683 V 1.0971685 q 0,0.011535 0.00288,0.016116 0.00288,0.00458 0.011535,0.00554 l 0.034154,0.00385 v 0.00385 H 1.3789668 v -0.00385 l 0.034606,-0.00385 q 0.00865,-9.613e-4 0.011536,-0.00554 0.00288,-0.00458 0.00288,-0.016116 V 0.81743243 l -0.00192,-0.002884 q -0.00673,-0.009613 -0.012723,-0.012723 -0.00599,-0.00311 -0.017529,-0.00311 h -0.0082 v -0.003845 h 0.071644 L 1.6486375,1.060187 h 0.00192 V 0.82416147 q 0,-0.0115355 -0.00288,-0.016342 -0.00288,-0.004806 -0.011536,-0.005259 l -0.038961,-0.003845 v -0.003845 z"
             id="path3"
             style="stroke-width:0.00565466"
             clip-path="url(#clipPath63)" /><path
             fill="#111111"
             d="M 1.965355,1.0255805 1.9533671,1.1265161 H 1.7178505 v -0.00385 l 0.039413,-0.00385 V 0.80256068 l -0.039413,-0.003845 v -0.003845 h 0.235969 l 0.00673,0.0903615 -0.00481,4.5237e-4 -0.026916,-0.0672905 q -0.0043,-0.0110266 -0.00939,-0.0144194 -0.00503,-0.003336 -0.016568,-0.003336 H 1.794245 v 0.14753008 h 0.071136 q 0.011536,0 0.016342,-0.003845 0.00481,-0.003845 0.00673,-0.0148718 l 0.0082,-0.0389606 h 0.00577 V 1.013536 H 1.896653 L 1.888453,0.974632 Q 1.886533,0.9635489 1.881723,0.9597037 1.876913,0.9558587 1.865381,0.9558587 H 1.794245 v 0.1648897 h 0.1076647 q 0.011535,0 0.016851,-0.00362 0.00526,-0.00362 0.00961,-0.014193 l 0.031723,-0.077865 z"
             id="path4"
             style="stroke-width:0.00565466"
             clip-path="url(#clipPath61)" /><path
             fill="#111111"
             d="M 2.0682133,0.98232231 V 1.1188258 l 0.047103,0.00385 v 0.00385 H 1.9918188 v -0.00385 l 0.039413,-0.00385 V 0.80256068 l -0.039413,-0.003845 v -0.003845 H 2.113394 q 0.056264,0 0.08629,0.0240323 0.030026,0.0240323 0.030026,0.0677428 0,0.0466509 -0.0298,0.0711356 -0.0298,0.0245412 -0.086516,0.0245412 z m 0,-0.18168422 v 0.17591647 h 0.043767 q 0.038904,0 0.056716,-0.0221097 0.017756,-0.0221097 0.017756,-0.0701743 0,-0.0399219 -0.016116,-0.0617489 -0.016059,-0.0218835 -0.058356,-0.0218835 z"
             id="path5"
             style="stroke-width:0.00565466"
             clip-path="url(#clipPath59)" /><path
             fill="#111111"
             d="m 2.4008204,0.78718 q 0.041844,0 0.076677,0.023071 0.034833,0.023071 0.054794,0.0627102 0.019961,0.0396392 0.019961,0.0877038 0,0.0480646 -0.019961,0.0877603 -0.019961,0.039639 -0.054794,0.06271 -0.034833,0.023071 -0.076677,0.023071 -0.041788,0 -0.076677,-0.023071 -0.034833,-0.023071 -0.054794,-0.06271 -0.019904,-0.039696 -0.019904,-0.0877603 0,-0.0480646 0.019904,-0.0877038 Q 2.2893104,0.833322 2.3241434,0.810251 2.3590324,0.78718 2.4008204,0.78718 M 2.2955872,0.96066497 q 0,0.0802961 0.027369,0.12378053 0.027425,0.043484 0.077865,0.043484 0.050496,0 0.077865,-0.043484 0.027425,-0.043484 0.027425,-0.12378053 0,-0.0802396 -0.027425,-0.1240067 -0.027369,-0.0437105 -0.077865,-0.0437105 -0.05044,0 -0.077865,0.0437105 -0.027369,0.0437671 -0.027369,0.1240067"
             id="path6"
             style="stroke-width:0.00565466"
             clip-path="url(#clipPath57)" /><path
             fill="#111111"
             d="m 2.5724393,0.79487034 h 0.1158074 v 0.003845 l -0.039413,0.003845 V 1.1188258 l 0.039413,0.00385 v 0.00385 H 2.5724393 v -0.00385 l 0.039413,-0.00385 V 0.80256068 l -0.039413,-0.003845 z"
             id="path7"
             style="stroke-width:0.00565466"
             clip-path="url(#clipPath55)" /><path
             fill="#111111"
             d="m 3.0314279,0.79487034 v 0.003845 l -0.034607,0.003845 q -0.011535,0.001414 -0.015381,0.005768 -0.00385,0.004298 -0.00385,0.015833 V 1.1342065 h -0.00481 L 2.7570074,0.82800664 h -0.00192 V 1.0971685 q 0,0.011535 0.00288,0.016116 0.00288,0.00458 0.011535,0.00554 l 0.034098,0.00385 v 0.00385 H 2.6983686 v -0.00385 l 0.034607,-0.00385 q 0.00865,-9.613e-4 0.011535,-0.00554 0.00288,-0.00458 0.00288,-0.016116 V 0.81743243 l -0.00192,-0.002884 q -0.00673,-0.009613 -0.01278,-0.012723 -0.00599,-0.00311 -0.017529,-0.00311 h -0.00814 v -0.003845 h 0.071588 L 2.9679827,1.060187 h 0.00192 V 0.82416147 q 0,-0.0115355 -0.00288,-0.016342 -0.00288,-0.004806 -0.011535,-0.005259 l -0.038904,-0.003845 v -0.003845 z"
             id="path8"
             style="stroke-width:0.00565466"
             clip-path="url(#clipPath53)" /><path
             fill="#111111"
             d="m 3.1569048,1.1188202 -0.05191,0.00385 v 0.00385 h 0.140801 v -0.00385 l -0.05191,-0.00385 V 0.80012352 h 0.070174 q 0.011535,0 0.016568,0.003619 0.00509,0.003619 0.00939,0.0146456 l 0.0298,0.0740195 0.00385,-9.613e-4 -0.010574,-0.10427192 h -0.00288 q -0.010574,0.004806 -0.018038,0.00622 -0.00741,0.00147 -0.018943,0.00147 h -0.185077 q -0.011535,0 -0.019,-0.00147 -0.00741,-0.001414 -0.017982,-0.00622 h -0.00288 l -0.018773,0.10427192 0.00385,9.613e-4 0.033193,-0.0740195 q 0.00481,-0.0110266 0.010065,-0.0146456 0.00532,-0.003619 0.016851,-0.003619 h 0.063445 z"
             id="path9"
             style="stroke-width:0.00565466"
             clip-path="url(#clipPath51)" /><path
             fill="#68b6ff"
             d="m 0.45981309,0.73688067 c 0.029555,-5.089e-5 0.0294815,-0.0443815 -7.351e-5,-0.0443325 -0.029555,0 -0.029555,0.0443325 0,0.0443325 m 0,-0.0362238 c 0.0187885,-0.001327 0.020779,0.0268559 0.00199,0.0281828 -0.0187886,0.001327 -0.020779,-0.0268558 -0.00199,-0.0281828 m -0.12594624,0.082869 0.002098,-1.4137e-4 0.0243376,-0.004331 0.0455935,-0.006503 c 0.004991,-9.3489e-4 0.008861,1.5833e-4 0.011609,0.00328 0.006718,0.007487 0.006503,0.0248975 0.005881,0.0309875 v 4.1844e-4 c -7.6502e-4,0.0202886 -0.0083,0.0397373 -0.0214029,0.055246 l -2.8273e-4,3.4493e-4 c -0.0148944,0.0198648 -0.006084,0.0318923 -0.005734,0.0323786 l 0.042868,0.0515422 9.104e-4,-0.009726 c 0.001261,-0.0138426 0.001329,-0.023563 0.00112,-0.0292289 v -0.001397 l -0.0146908,-0.0175577 c -7.4868e-4,-0.001656 -8.2372e-4,-0.003538 -2.0922e-4,-0.005248 0.002024,-0.006921 0.0101388,-0.0144759 0.0144024,-0.0179027 0.005881,0.009862 0.005315,0.0314682 0.004897,0.0462947 l -2.0922e-4,0.0104894 c -2.03e-4,0.010568 -9.5044e-4,0.0211185 -0.002239,0.0316095 l -2.0922e-4,0.001679 0.001052,0.001261 c 0.001606,0.002092 0.004682,0.002867 0.009856,0.003772 h 5.6547e-4 c 5.5811e-4,1.4306e-4 0.001161,2.1488e-4 0.001809,2.1488e-4 0.005739,0 0.0107043,-0.00462 0.0118182,-0.0110492 l 0.007696,-0.0446153 c 1.3967e-4,-4.224e-4 2.0922e-4,-8.6703e-4 2.0922e-4,-0.001335 l 0.0211315,-0.11978266 0.0441968,0.009647 0.0334982,0.009862 c 0.001866,5.615e-4 0.00366,8.4254e-4 0.005383,8.4254e-4 0.004897,0 0.008392,-0.002448 0.009579,-0.006644 5.6151e-4,-0.001259 7.9545e-4,-0.002612 7.0118e-4,-0.00406 -2.8273e-4,-0.004196 -0.001815,-0.006786 -0.005525,-0.009296 -0.0246826,-0.0188866 -0.1227966,-0.0371341 -0.12699236,-0.0379032 H 0.45737 c -0.009696,-0.001399 -0.0195331,-0.002098 -0.0295117,-0.002098 -0.017283,4.524e-5 -0.0345128,0.001919 -0.0514009,0.005592 L 0.33191,0.75814153 c -0.003495,5.5981e-4 -0.006362,0.002799 -0.008177,0.006011 -0.001551,0.002761 -0.002119,0.005967 -0.001612,0.009093 9.7826e-4,0.006017 0.005943,0.010348 0.0116769,0.010348 m -0.003076,-0.0153807 c 5.3663e-4,-0.001027 0.001474,-0.001786 0.00259,-0.002098 l 0.0445474,-0.007905 7.6904e-4,-6.786e-5 5.5981e-4,-1.4136e-4 c 0.008527,-0.001679 0.0261528,-0.005315 0.0486697,-0.005315 0.009605,0 0.0190223,6.5407e-4 0.0282507,0.001962 0.003427,6.9553e-4 0.10083955,0.0189488 0.12357128,0.036433 l 2.0923e-4,1.3571e-4 c 0.001957,0.001402 0.002092,0.001889 0.002092,0.003223 l -2.7708e-4,0.001046 -6.785e-5,2.0922e-4 c -1.4137e-4,4.1844e-4 -2.8274e-4,9.0474e-4 -0.001889,9.0474e-4 -0.001063,-3.958e-5 -0.002118,-2.0526e-4 -0.003144,-4.863e-4 l -0.0335717,-0.00993 -0.0528654,-0.0115355 -0.0225904,0.12824769 v 4.9196e-4 l -6.786e-5,7.0118e-4 -0.007764,0.0446153 c -4.8631e-4,0.002726 -0.002375,0.004337 -0.003913,0.004337 H 0.45541233 L 0.454779,0.95289924 0.451075,0.95219806 C 0.45224,0.94147686 0.452892,0.93171126 0.453032,0.92290126 l 2.0923e-4,-0.0106308 c 4.9195e-4,-0.0188866 0.00112,-0.0423082 -0.008041,-0.0534309 v -0.002516 h -0.004054 c -0.003845,0 -0.0158048,0.0112584 -0.0203568,0.0191636 -0.004891,0.008392 -0.003489,0.0141932 -0.001532,0.0176934 l 0.0135655,0.0162232 c 9.443e-5,0.003958 -4.524e-5,0.009645 -4.1845e-4,0.0170601 l -0.0300715,-0.0361502 c -5.5981e-4,-8.4255e-4 -0.004897,-0.008465 0.005598,-0.022449 0.002166,-0.002448 0.0230031,-0.0262263 0.0233537,-0.0603522 2.8273e-4,-0.00259 0.002239,-0.0258022 -0.007905,-0.0370663 -0.003728,-0.004196 -0.008506,-0.006294 -0.0143346,-0.006294 -0.001489,0 -0.00298,1.4136e-4 -0.004473,4.2409e-4 l -0.0455992,0.006503 -0.0244734,0.004405 c -0.002516,4.1845e-4 -0.004196,-0.001679 -0.004473,-0.003636 -1.2497e-4,-0.001299 1.1592e-4,-0.002608 6.9552e-4,-0.003777 m 0.39735296,0.0479741 c 0.029555,0 0.029555,-0.0443325 0,-0.0443325 -0.029555,0 -0.029555,0.0443325 0,0.0443325 m -0.002652,-0.0134201 c 0.0187885,-0.001319 0.0223586,-0.0134407 0.00357,-0.0121213 -0.0187885,0.001319 -0.0170554,0.008668 0.001733,0.007348 m 0.0556706,0.24896525 c 0.0295098,0.00166 0.0319978,-0.042606 0.002488,-0.044265 -0.0295098,-0.00166 -0.0319978,0.042606 -0.002488,0.044265 m 0,-0.036156 c 0.0187886,-0.00132 0.0207677,0.026864 0.001979,0.028183 -0.0187886,0.00132 -0.0207677,-0.026863 -0.001979,-0.028183 M 0.51687992,1.008146 c 4.524e-5,0.029555 0.0443778,0.029487 0.0443325,-6.78e-5 0,-0.029555 -0.0443325,-0.029555 -0.0443325,0 m 0.0362238,0 c 0.001319,0.018789 -0.0268634,0.020768 -0.0281828,0.00198 -0.001319,-0.0187885 0.0268634,-0.0207676 0.0281828,-0.00198 M 0.29288753,0.85052237 c 0,0.0295551 0.0443325,0.0295551 0.0443325,0 -0.001547,-0.0279204 -0.0427181,-0.0279204 -0.0442647,0 m 0.0221663,-0.0139896 c 0.0206776,-0.002034 0.0206776,0.0301491 0,0.028115 -0.0175292,-0.001217 -0.0175292,-0.0269657 0,-0.0281828 m 0.482105,0.10650552 c -0.007501,-8.5199e-4 -0.0142038,0.004708 -0.014753,0.0122367 l -0.003987,0.0440555 0.005248,-9.7826e-4 c 0.005592,-0.001046 0.0111849,0 0.0160819,0.002726 l 7.6903e-4,4.241e-4 0.004965,3.506e-4 0.003987,-0.0441289 c 6.7177e-4,-0.007484 -0.004888,-0.0140804 -0.0123781,-0.0146851 m 0.00112,0.0486018 c -0.003345,-0.001077 -0.006834,-0.001643 -0.010348,-0.001679 H 0.787366 L 0.79038,0.95590943 c 0.001468,-0.006318 0.0107091,-0.0055 0.0110436,9.7826e-4 z M 0.73792623,1.1658375 c 0.007739,-0.00317 0.0142667,-0.00594 0.0195821,-0.00832 l 0.002098,-9.782e-4 0.0079,-0.00371 0.0035,-0.00161 6.2766e-4,-2.827e-4 c 0.0309084,-0.01615 0.0274138,-0.065311 0.0270632,-0.069156 -1.883e-4,-0.01278 -0.003476,-0.022059 -0.009862,-0.027838 -0.005603,-0.00503 -0.0132537,-0.0071 -0.0206282,-0.0056 -0.00972,0.00224 -0.0174163,0.00364 -0.0190901,0.00399 h -0.0389493 l -0.0295852,5.599e-4 c -0.00752,3.95e-5 -0.013573,0.00619 -0.0134977,0.013707 1.1762e-4,0.00747 0.006231,0.013462 0.0137069,0.013424 l 0.0395148,-3.506e-4 h 0.022449 c 0.002609,0 0.004637,7.464e-4 0.006084,0.00224 0.002935,0.00315 0.00328,0.00895 0.003144,0.01084 v 4.184e-4 c 7.0118e-4,0.022308 -0.0397183,0.049303 -0.055246,0.057762 -0.0238457,0.011892 -0.024824,0.028256 -0.0248975,0.028952 v 0.013639 l 1.4137e-4,0.00356 8.4254e-4,0.036857 c 1.7756e-4,0.00737 0.006191,0.013263 0.0135655,0.013288 h 2.8274e-4 c 0.003728,-9.44e-5 0.006897,-0.00149 0.009505,-0.0042 0.002508,-0.00258 0.00387,-0.00606 0.003777,-0.00965 l -7.6903e-4,-0.035947 c 0.002701,-0.012198 0.0115882,-0.022094 0.0234273,-0.026085 0.002518,-7.426e-4 0.005572,-0.00181 0.009161,-0.00321 v 2.092e-4 z m -0.0176199,-0.00223 c -9.7825e-4,3.506e-4 -0.024479,0.00776 -0.0290932,0.032797 l -6.786e-5,3.506e-4 7.6904e-4,0.036851 c 9.6e-7,0.00304 -0.00242,0.00552 -0.005457,0.0056 h -6.786e-5 c -0.003012,2.1e-6 -0.005486,-0.00238 -0.005598,-0.00539 l -7.6903e-4,-0.040352 -1.3572e-4,-0.00209 v -0.011196 c 1.3572e-4,-8.369e-4 0.001747,-0.012723 0.0205604,-0.022093 0.002443,-0.00133 0.06042,-0.033289 0.0595775,-0.06504 7.351e-5,-0.00175 2.0922e-4,-0.010699 -0.005242,-0.016568 -0.003143,-0.00325 -0.007508,-0.00503 -0.0120275,-0.0049 h -0.022449 l -0.0395826,4.185e-4 c -0.006259,-0.00102 -0.006259,-0.010025 0,-0.011049 l 0.0295117,-5.598e-4 h 0.0391585 l 7.6904e-4,-6.79e-5 c 7.351e-5,0 0.008606,-0.00161 0.0197235,-0.00406 9.444e-5,-9.05e-5 0.001003,-1.601e-4 0.002726,-2.093e-4 0.0155277,0 0.0179762,0.016297 0.018044,0.026012 v 2.827e-4 c 6.785e-5,4.92e-4 0.003777,0.045039 -0.0207696,0.060279 l -0.002799,0.00154 -0.0127965,0.00588 -0.001957,9.783e-4 -0.0132206,0.00559 -0.004196,0.00175 c -0.006058,0.00242 -0.0109531,0.00417 -0.0146852,0.00524"
             id="path17"
             style="fill:#ffeeaa;stroke:#000000;stroke-width:0.00125405;stroke-dasharray:none;stroke-opacity:1"
             clip-path="url(#clipPath42)" /><path
             fill="#68b6ff"
             d="m 0.77378809,1.1923466 c -0.00688,-0.00764 -0.0107138,-0.017548 -0.0107721,-0.027832 l 1.4137e-4,-0.0063 -0.005734,0.00252 c -0.005364,0.00233 -0.0116599,0.00499 -0.0188866,0.00797 l -0.002726,0.00111 2.8273e-4,0.00294 c 0.001538,0.016783 0.0125873,0.031677 0.0190901,0.039017 l 0.0305578,0.028607 c 0.0134969,0.010608 0.0304185,-0.00796 0.0186038,-0.020419 z m 0.0255195,0.041675 c -0.002144,0.00237 -0.005799,0.00256 -0.008177,4.241e-4 L 0.76147759,1.2068227 0.76119486,1.20654 C 0.75678986,1.20151 0.74686026,1.188846 0.74448536,1.17493 l 0.01084,-0.00447 c 0.001374,0.00997 0.005626,0.019329 0.0122367,0.026922 l 0.0314003,0.028601 c 0.002367,0.0021 0.002524,0.00575 3.4494e-4,0.00804 M 0.62504226,0.94052194 c -9.7826e-4,6.2767e-4 -0.00769,0.004478 -0.0132885,0.0127965 -0.005383,0.008041 -0.0109135,0.0220305 -0.006294,0.042868 l 0.00259,0.017275 c 0.003446,0.017008 0.0287935,0.012967 0.0267805,-0.00427 l -0.002166,-0.014261 c 0,-2.1488e-4 -0.002448,-0.0195821 0.0137069,-0.0311232 l 0.0357375,-0.0237043 c -5.4002e-4,0.0137757 -0.005139,0.0270844 -0.0132206,0.0382538 -0.007921,0.009543 -0.0124458,0.0214481 -0.0128643,0.0338431 -5.089e-5,0.00242 -3.79e-6,0.00499 1.3571e-4,0.00769 l 1.4137e-4,0.00854 c 1.9282e-4,0.00732 0.00618,0.013144 0.0134977,0.013141 h 4.1845e-4 c 0.007453,-1.912e-4 0.0133401,-0.00639 0.0131471,-0.013843 l -6.786e-5,-0.00539 v -0.00175 l -1.4136e-4,-0.00615 c 9.7825e-4,-0.00804 0.006503,-0.0242642 0.0322372,-0.0445475 0.00315,-0.001747 0.0199327,-0.0130057 0.0212615,-0.0508354 l 0.002092,-0.0534309 c 0.008883,0.005734 0.0271424,0.020419 0.0411207,0.0513274 l 0.00294,0.0122423 c 0.002744,0.0118598 0.0185088,0.0143878 0.024824,0.003981 0.001889,-0.003144 0.002448,-0.006786 0.001612,-0.0102745 l -0.003568,-0.0148265 -5.6547e-4,-0.002516 -0.001532,-0.006299 -6.786e-5,-2.7708e-4 c -5.0439e-4,-0.001669 -0.001113,-0.003304 -0.001821,-0.004897 l -2.8273e-4,-6.9552e-4 c -6.5215e-4,-0.00112 -0.00121,-0.002286 -0.001674,-0.0035 l -2.8274e-4,-6.9553e-4 -6.9552e-4,-0.001402 -0.001402,-0.002867 -1.4137e-4,-2.0922e-4 -6.9552e-4,-0.00147 c -0.011609,-0.0225169 -0.0366422,-0.0527241 -0.0898639,-0.0690886 l -0.0526562,-0.0158048 -0.0314682,-0.0102123 c -0.0172498,-0.005593 -0.0256413,0.0202827 -0.008392,0.0258757 l 0.0383951,0.0123837 c 0.003495,0.001674 0.0388758,0.0208318 0.0174729,0.0695749 -0.001114,0.00203 -0.0155899,0.0269275 -0.0450281,0.0445474 m 0.0308356,-0.1214672 -0.0390907,-0.0127286 c -0.002897,-9.6905e-4 -0.004482,-0.004082 -0.003562,-0.006995 9.9697e-4,-0.002867 0.004097,-0.004417 0.006989,-0.003495 l 0.0314682,0.0102067 0.0527297,0.0158048 c 0.0505583,0.0155277 0.0741326,0.0439933 0.0850348,0.0651078 l 4.9195e-4,9.0474e-4 1.4137e-4,2.8274e-4 1.3571e-4,2.8273e-4 0.002239,0.004541 c 5.6151e-4,0.001399 0.001191,0.002752 0.001889,0.00406 l 9.0475e-4,0.002516 7.0683e-4,0.001815 0.001397,0.006158 6.2767e-4,0.002307 0.003495,0.0149622 c 3.7716e-4,0.001399 1.6964e-4,0.002797 -6.2202e-4,0.004196 -0.001023,0.001605 -0.00279,0.00258 -0.004693,0.00259 -0.002538,-1.64e-5 -0.004747,-0.001739 -0.005383,-0.004196 l -0.003076,-0.012723 -2.0923e-4,-7.0118e-4 c -0.0204868,-0.0455257 -0.0496479,-0.0582543 -0.0508354,-0.0587463 l -0.005389,-0.002234 -0.002516,0.0657354 c -0.001261,0.0355904 -0.0170658,0.0441233 -0.0172015,0.0441912 l -4.241e-4,2.1488e-4 -2.8273e-4,2.0922e-4 C 0.6836415,0.98458305 0.67644312,1.0024801 0.67518213,1.013812 v 2.827e-4 l 2.0922e-4,0.013769 c 0,0.00149 -5.1288e-4,0.00282 -0.001538,0.00399 -0.001016,0.00104 -0.002394,0.00164 -0.003845,0.00168 h -1.4136e-4 c -0.002956,-3.51e-5 -0.005375,-0.00236 -0.005525,-0.00532 l -1.4136e-4,-0.0086 v -1.47e-4 c -1.3967e-4,-0.00238 -1.8491e-4,-0.00466 -1.3571e-4,-0.00685 v -2.806e-4 c 4.7061e-4,-0.010478 0.004295,-0.0205281 0.010908,-0.0286691 l 2.0923e-4,-2.7708e-4 c 0.0108913,-0.0147232 0.0161727,-0.032849 0.0148944,-0.0511181 l -6.9552e-4,-0.006644 -0.0475557,0.031536 c -0.0122185,0.008992 -0.0187424,0.0237964 -0.0171336,0.0388814 l 0.002166,0.0144081 c 0.001367,0.00738 -0.009804,0.00925 -0.0109078,0.00182 L 0.61336591,0.99485702 0.6132924,0.9946478 C 0.6057434,0.9605219 0.6279776,0.9481439 0.6289558,0.9476576 l 1.4137e-4,-1.4136e-4 c 0.0324464,-0.0194407 0.0474822,-0.0466509 0.0481155,-0.0477649 l 1.3571e-4,-2.8273e-4 c 0.0254573,-0.057621 -0.0210466,-0.0802057 -0.0215386,-0.0804149 m -0.007973,0.22405459 h -0.0321637 l -0.001679,1.414e-4 -0.0499307,-2.828e-4 c -0.0130792,-0.00699 -0.0395091,-0.011185 -0.0427266,-0.011677 -0.0118917,-0.00364 -0.0440611,-0.0344029 -0.0597245,-0.0493651 -0.001342,-0.001522 -0.002765,-0.00297 -0.004264,-0.004337 L 0.43377968,0.9556986 c -0.00547,-0.005131 -0.0140743,-0.004819 -0.019158,6.9552e-4 -0.005125,0.005474 -0.004813,0.0140751 6.9552e-4,0.0191636 l 0.0235008,0.0218835 c 7.4263e-4,7.5019e-4 0.001674,0.001521 0.002793,0.002313 l 0.017275,0.0151036 c 0.0231666,0.01944 0.0383148,0.046769 0.042523,0.076717 v 3.506e-4 c 0.006442,0.037773 0.0215167,0.07355 0.0440498,0.1045433 l 0.004688,0.00749 7.6904e-4,0.00119 0.0158048,0.021397 c 0.004536,0.00595 0.0129996,0.00716 0.0190223,0.00273 0.005945,-0.00451 0.007133,-0.012976 0.002658,-0.018949 l -0.0153863,-0.020911 -8.4254e-4,-0.00112 c -0.001688,-0.00239 -0.003461,-0.00472 -0.005315,-0.00699 C 0.5483268,1.1567587 0.5514764,1.1498317 0.5519627,1.1490627 l 6.3332e-4,-4.863e-4 c 7.8707e-4,-7.652e-4 0.001843,-0.00119 0.00294,-0.00119 0.004264,0 0.009997,0.00587 0.0125816,0.00951 l 0.009093,0.00978 c 0.001395,0.00168 0.004938,0.00555 0.0106308,0.011615 0.003353,0.00364 0.007549,0.00811 0.008182,0.00895 l 0.0212615,0.022166 c 0.005384,0.00527 0.0140377,0.00511 0.0192258,-3.506e-4 0.005221,-0.00533 0.005127,-0.013879 -2.0923e-4,-0.01909 l -0.0197913,-0.020487 -0.002092,-0.0021 c -0.0530124,-0.048675 -0.0475557,-0.087274 -0.0450394,-0.097136 h 0.0784641 c 0.0177255,-3.619e-4 0.0177255,-0.026775 0,-0.027137 m 0,0.019096 h -0.08413 l -0.001046,0.00244 c -7.6903e-4,0.00196 -0.0195821,0.048257 0.0461533,0.1086034 l 0.001957,0.00189 0.0197913,0.02056 c 0.00482,0.00505 -0.002218,0.012538 -0.007555,0.00804 l -0.0206282,-0.021397 c -9.7825e-4,-0.00133 -0.003495,-0.00405 -0.008669,-0.00951 -0.003845,-0.0042 -0.009161,-0.00979 -0.010071,-0.011117 l -0.009093,-0.00965 c -0.001538,-0.00209 -0.009653,-0.012723 -0.0190223,-0.012723 -0.002891,0 -0.005525,9.782e-4 -0.0079,0.00293 -0.001052,6.955e-4 -0.00294,0.00231 -0.003845,0.0056 -0.002055,0.00815 0.00354,0.020951 0.016783,0.03839 l 1.3572e-4,1.357e-4 c 0.001402,0.00161 0.003709,0.0049 0.004897,0.00658 l 9.7826e-4,0.00126 0.0153807,0.020843 c 0.004008,0.0058 -0.004272,0.012114 -0.008804,0.00671 l -0.0154598,-0.020979 -6.9553e-4,-0.00105 c -0.001557,-0.0026 -0.003165,-0.00516 -0.004823,-0.00769 l -1.424e-4,-2.143e-4 C 0.53023549,1.1618721 0.51563821,1.1272694 0.50937619,1.0907323 0.5090256,1.0869607 0.50420217,1.0417799 0.4641276,1.0087737 L 0.446649,0.9936022 l -2.8273e-4,-2.8274e-4 -0.002092,-0.001753 -0.0235008,-0.0218835 c -0.003507,-0.003464 -0.00115,-0.009441 0.003777,-0.009579 0.001395,0 0.002654,4.6555e-4 0.003777,0.001397 l 0.023563,0.0220306 c 7.0118e-4,6.9552e-4 0.002658,0.002448 0.003636,0.003704 l 3.5059e-4,3.5059e-4 c 0.0241284,0.0230765 0.0509089,0.047974 0.0635018,0.0515366 l 4.863e-4,1.414e-4 c 2.8273e-4,0 0.0292346,0.00427 0.0411207,0.011191 l 9.7825e-4,5.598e-4 h 0.001046 l 0.0512595,2.827e-4 h 6.3332e-4 l 6.9552e-4,-1.412e-4 h 0.0322429 c 0.006383,-0.00104 0.006383,0.012094 0,0.011049 m -0.40938042,-0.00763 -0.003144,-0.00658 -0.0346857,0.054827 -0.018536,0.028386 c -0.009933,0.015154 0.0127984,0.030055 0.0227317,0.0149 l 0.0155899,-0.023778 0.0314738,-0.041466 -0.001261,-0.00224 c -0.004244,-0.00792 -0.008302,-0.015942 -0.0121688,-0.024055 m -0.0244677,0.062936 -0.0159461,0.024196 c -0.002652,0.00589 -0.0135959,-0.00133 -0.009228,-0.00608 l 0.0186038,-0.02846 0.0269162,-0.042659 0.007973,0.015663 z m 0.18335801,-0.18979346 -0.009093,-0.005807 c -0.005451,-0.003636 -0.0335661,-0.0223076 -0.0581865,-0.0366422 -0.0109473,-0.006767 -0.023494,-0.0105072 -0.0363595,-0.01084 -0.003589,4.919e-5 -0.006525,2.8273e-4 -0.00881,7.0117e-4 -0.002799,-0.0192994 0.003913,-0.0420989 0.0104215,-0.0583222 l 0.0173428,-0.0319601 c 0.004811,-0.008938 -0.001534,-0.0198004 -0.0116825,-0.0200005 -0.00475,0 -0.009161,0.002658 -0.011609,0.006995 l -0.005802,0.009093 c -0.0305634,0.0432864 -0.0319601,0.0843336 -0.0319601,0.0860074 v 8.482e-4 l 2.0923e-4,6.9552e-4 c 0.007487,0.0200005 -0.009862,0.0895133 -0.0171336,0.11468781 l -6.786e-5,1.4137e-4 c -0.00769,0.0321637 0.005802,0.0599281 0.006786,0.0620316 l 0.007622,0.0165 0.004473,0.00916 0.0415391,0.062936 0.004264,0.00888 c 0.003269,0.00677 0.0114049,0.00962 0.0181854,0.00637 0.006734,-0.00327 0.009549,-0.011372 0.006294,-0.018112 l -0.0191636,-0.039865 -1.3571e-4,1.47e-4 -0.006017,-0.01231 -2.0922e-4,-3.506e-4 c -0.0144081,-0.022935 -0.0135712,-0.037411 -0.013215,-0.040561 0.009161,-0.013424 0.00881,-0.0426587 0.00881,-0.0438462 v -4.1844e-4 l -1.4137e-4,-4.1845e-4 c -0.004337,-0.0188866 0.0173428,-0.0611891 0.0283242,-0.0798608 l 0.047273,0.0279736 0.0129379,0.008736 c 0.006239,0.004178 0.0146824,0.002522 0.0188809,-0.003704 0.004196,-0.006152 0.002516,-0.0146851 -0.003777,-0.0188866 m -0.00294,0.0144081 c -0.001714,0.002525 -0.005135,0.003211 -0.00769,0.001544 l -0.0130057,-0.008816 -0.054477,-0.0322316 -0.002098,0.003353 c -0.00653,0.0109143 -0.0124833,0.0221637 -0.0178348,0.0337018 -0.0114676,0.0248993 -0.015965,0.0432695 -0.013492,0.0551103 6.785e-5,0.008392 -0.00112,0.0304899 -0.007764,0.0393677 l -4.9196e-4,7.012e-4 -2.0922e-4,7.012e-4 c -1.4136e-4,7.69e-4 -0.004196,0.01818 0.0139896,0.047199 l 0.0104894,0.021544 h 1.3571e-4 l 0.0146173,0.030275 c 0.001862,0.00615 -0.006404,0.010079 -0.009997,0.00476 l -0.004546,-0.00944 -0.0414034,-0.062654 -0.004405,-0.00888 -0.007481,-0.016438 -6.785e-5,-1.414e-4 c -0.008084,-0.017677 -0.01029,-0.037479 -0.006294,-0.0565014 4.863e-4,-0.001679 0.006989,-0.0240549 0.0122367,-0.0491616 0.007204,-0.03455 0.008951,-0.0579716 0.005033,-0.0695806 3.5059e-4,-0.005525 0.003427,-0.0426588 0.0305634,-0.0811218 l 0.006011,-0.009302 1.4137e-4,-2.0923e-4 c 0.00147,-0.002726 0.004478,-0.003777 0.006995,-0.002375 0.002658,0.001397 0.003704,0.004823 0.002234,0.007481 l -0.0174786,0.0321694 -2.0922e-4,4.1845e-4 c -0.007345,0.0184625 -0.0151093,0.0452429 -0.010071,0.0674827 l 0.001046,0.004546 0.004411,-0.001679 c 0,0 0.003845,-0.001538 0.0104837,-0.001538 0.006995,0 0.0183211,0.001753 0.032175,0.009788 0.0245412,0.0142667 0.052447,0.032797 0.0579037,0.0363651 l 0.009087,0.005881 c 0.002499,0.001737 0.003152,0.005154 0.00147,0.00769 M 0.67688418,1.4329467 h -0.001187 l -0.001187,-5.65e-5 -0.005824,-5.66e-5 -0.001131,-5.65e-5 -0.005881,-5.66e-5 c -0.003544,0 -0.005655,-1.317e-4 -0.006333,-3.958e-4 -0.001093,-3.772e-4 -0.00164,-0.00119 -0.00164,-0.00243 0,-0.00124 8.8592e-4,-0.00296 0.002658,-0.00515 l 0.006559,-0.00667 c 0.004298,-0.00437 0.007087,-0.00752 0.008369,-0.00944 0.002149,-0.00324 0.003223,-0.00618 0.003223,-0.00882 0,-0.00268 -6.7856e-4,-0.00477 -0.002036,-0.00628 -0.001395,-0.00151 -0.003072,-0.00226 -0.005033,-0.00226 -0.003393,0 -0.005975,0.00172 -0.007747,0.00515 -0.001244,0.00241 -0.002375,0.00362 -0.003393,0.00362 -0.001659,0 -0.002488,-9.236e-4 -0.002488,-0.00277 0,-0.00185 3.9582e-4,-0.00334 0.001187,-0.00447 7.5393e-4,-0.00113 0.001828,-0.00215 0.003223,-0.00305 0.003129,-0.00207 0.006823,-0.00311 0.0110831,-0.00311 0.00426,0 0.007577,0.00115 0.009952,0.00345 0.002413,0.00226 0.003619,0.00532 0.003619,0.00916 0,0.00294 -0.001018,0.00577 -0.003054,0.00848 -0.002036,0.00271 -0.005428,0.00616 -0.0101784,0.010348 -0.00475,0.00418 -0.007125,0.00675 -0.007125,0.00769 0,7.163e-4 0.001998,0.00107 0.005994,0.00107 0.003958,0 0.006691,-2.449e-4 0.008199,-7.351e-4 0.00147,-4.903e-4 0.002808,-0.00119 0.004015,-0.00209 0.001206,-9.424e-4 0.002149,-0.00141 0.002827,-0.00141 7.1627e-4,0 0.001074,8.293e-4 0.001074,0.00249 0,0.00332 -6.2201e-4,0.00556 -0.001866,0.00673 -8.2937e-4,7.539e-4 -0.00279,0.00113 -0.005881,0.00113"
             id="path18"
             style="fill:#ffeeaa;stroke:#000000;stroke-width:0.00125405;stroke-dasharray:none;stroke-opacity:1"
             clip-path="url(#clipPath41)" /></g></g></g></g></svg>
