<?xml version="1.0" encoding="UTF-8" standalone="no"?>
<!-- Created with Inkscape (http://www.inkscape.org/) -->

<svg
   width="2.5657005in"
   height="0.61324304in"
   viewBox="0 0 2.5657005 0.61324304"
   id="SVGRoot"
   version="1.1"
   xml:space="preserve"
   xmlns="http://www.w3.org/2000/svg"
   xmlns:svg="http://www.w3.org/2000/svg"><defs
     id="defs1" /><g
     id="layer1"
     transform="translate(-0.15382569,-0.11248597)"><g
       id="layer1-5"
       transform="matrix(0.00450914,0,0,0.00450914,-2.2289077,0.2648137)"><path
         id="rect1-4"
         style="fill:none"
         d="M 528.42302,-33.781992 H 1097.423 V 102.21801 H 528.42302 Z" /><path
         fill="#111111"
         d="m 678.97302,65.571008 q 0,5.35 -1.66,8.58 -1.65,3.23 -4.37,3.23 -2.89,0 -2.89,-2.97 l 0.08,-2.47 q 0,-1.78 -0.93,-2.8 -0.94,-1.02 -2.64,-1.02 -1.61,0 -2.59,1.02 -0.98,1.02 -0.98,2.72 0,2.8 2.64,4.67 2.63,1.87 6.63,1.87 3.14,0 5.95,-1.4 2.8,-1.4 4.5,-3.87 1.53,-2.21 2.17,-5.39 0.64,-3.19 0.64,-8.72 V 6.5810085 l 6.97,-0.68 v -0.68 h -20.49 v 0.68 l 6.97,0.68 z"
         id="path1-2" /><path
         id="rect2"
         style="fill:none"
         d="m 663.49301,5.7280085 h 29.5 V 78.908008 h -29.5 z" /><path
         fill="#111111"
         d="m 737.45302,10.401008 q 0,-2.0399995 -0.51,-2.7999995 -0.51,-0.77 -2.04,-1.02 l -6.03,-0.68 v -0.68 h 18.61 v 0.68 l -6.12,0.68 q -1.53,0.25 -2.04,1.02 -0.51,0.76 -0.51,2.7999995 v 32.64 q 0,5.36 -0.81,8.93 -0.8,3.57 -2.5,6.12 -2.3,3.31 -6.29,5.23 -4,1.91 -8.84,1.91 -3.91,0 -7.74,-1.28 -3.82,-1.27 -6.37,-3.48 -2.64,-2.3 -3.74,-5.87 -1.11,-3.57 -1.11,-9.86 V 6.5810085 l -6.97,-0.68 v -0.68 h 20.91 v 0.68 l -7.39,0.68 V 47.551008 q 0,6.2 1.14,9.52 1.15,3.31 3.87,4.93 1.45,0.85 3.57,1.36 2.13,0.51 4.42,0.51 4.25,0 7.82,-1.7 3.57,-1.7 5.7,-4.85 1.61,-2.38 2.29,-5.56 0.68,-3.19 0.68,-8.29 z"
         id="path2-2" /><path
         id="rect3"
         style="fill:none"
         d="m 694.94302,5.7180085 h 53.04 V 65.728008 h -53.04 z" /><path
         fill="#111111"
         d="m 805.71302,5.2210085 v 0.68 l -6.12,0.68 q -2.04,0.25 -2.72,1.02 -0.68,0.76 -0.68,2.7999995 v 54.83 h -0.85 l -38.17,-54.15 h -0.34 v 47.6 q 0,2.04 0.51,2.85 0.51,0.81 2.04,0.98 l 6.04,0.68 v 0.68 h -18.62 v -0.68 l 6.12,-0.68 q 1.53,-0.17 2.04,-0.98 0.51,-0.81 0.51,-2.85 V 9.2110085 l -0.34,-0.51 q -1.19,-1.7 -2.25,-2.25 -1.06,-0.55 -3.1,-0.55 h -1.45 v -0.68 h 12.67 l 33.49,46.9199995 h 0.34 v -41.74 q 0,-2.0399995 -0.51,-2.8899995 -0.51,-0.85 -2.04,-0.93 l -6.89,-0.68 v -0.68 z"
         id="path3" /><path
         id="rect4"
         style="fill:none"
         d="m 747.313,5.7180085 h 58.91 V 65.728008 h -58.91 z" /><path
         fill="#111111"
         d="m 850.50302,46.021008 -2.12,17.85 h -41.65 v -0.68 l 6.97,-0.68 V 6.5810085 l -6.97,-0.68 v -0.68 h 41.73 l 1.19,15.9799995 -0.85,0.08 -4.76,-11.8999995 q -0.76,-1.95 -1.66,-2.55 -0.89,-0.59 -2.93,-0.59 h -19.21 V 32.331008 h 12.58 q 2.04,0 2.89,-0.68 0.85,-0.68 1.19,-2.63 l 1.45,-6.89 h 1.02 v 21.76 h -1.02 l -1.45,-6.88 q -0.34,-1.96 -1.19,-2.64 -0.85,-0.68 -2.89,-0.68 h -12.58 v 29.16 h 19.04 q 2.04,0 2.98,-0.64 0.93,-0.64 1.7,-2.51 l 5.61,-13.77 z"
         id="path4" /><path
         id="rect5"
         style="fill:none"
         d="m 807.23301,5.7280085 h 43.77 V 64.378008 h -43.77 z" /><path
         fill="#111111"
         d="m 868.69302,38.371008 v 24.14 l 8.33,0.68 v 0.68 h -21.84 v -0.68 l 6.97,-0.68 V 6.5810085 l -6.97,-0.68 v -0.68 h 21.5 q 9.95,0 15.26,4.25 5.31,4.2499995 5.31,11.9799995 0,8.25 -5.27,12.58 -5.27,4.34 -15.3,4.34 z m 0,-32.1299995 V 37.351008 h 7.74 q 6.88,0 10.03,-3.91 3.14,-3.91 3.14,-12.41 0,-7.06 -2.85,-10.92 -2.84,-3.8699995 -10.32,-3.8699995 z"
         id="path5" /><path
         id="rect6"
         style="fill:none"
         d="m 855.68301,5.7280085 h 42.07 V 64.378008 h -42.07 z" /><path
         fill="#111111"
         d="m 927.51302,3.8610085 q 7.4,0 13.56,4.08 6.16,4.0799995 9.69,11.0899995 3.53,7.01 3.53,15.51 0,8.5 -3.53,15.52 -3.53,7.01 -9.69,11.09 -6.16,4.08 -13.56,4.08 -7.39,0 -13.56,-4.08 -6.16,-4.08 -9.69,-11.09 -3.52,-7.02 -3.52,-15.52 0,-8.5 3.52,-15.51 3.53,-7.01 9.69,-11.0899995 6.17,-4.08 13.56,-4.08 m -18.61,30.6799995 q 0,14.2 4.84,21.89 4.85,7.69 13.77,7.69 8.93,0 13.77,-7.69 4.85,-7.69 4.85,-21.89 0,-14.19 -4.85,-21.93 -4.84,-7.7299995 -13.77,-7.7299995 -8.92,0 -13.77,7.7299995 -4.84,7.74 -4.84,21.93"
         id="path6" /><path
         id="rect7"
         style="fill:none"
         d="m 901.25301,4.3680085 h 53.55 V 65.738008 h -53.55 z" /><path
         fill="#111111"
         d="m 957.86302,5.2210085 h 20.48 v 0.68 l -6.97,0.68 V 62.511008 l 6.97,0.68 v 0.68 h -20.48 v -0.68 l 6.97,-0.68 V 6.5810085 l -6.97,-0.68 z"
         id="path7" /><path
         id="rect8"
         style="fill:none"
         d="m 958.36301,5.7280085 h 20.48 V 64.378008 h -20.48 z" /><path
         fill="#111111"
         d="m 1039.033,5.2210085 v 0.68 l -6.12,0.68 q -2.04,0.25 -2.72,1.02 -0.68,0.76 -0.68,2.7999995 v 54.83 h -0.85 l -38.15998,-54.15 h -0.34 v 47.6 q 0,2.04 0.51,2.85 0.51,0.81 2.04,0.98 l 6.03,0.68 v 0.68 h -18.61 v -0.68 l 6.12,-0.68 q 1.53,-0.17 2.04,-0.98 0.51,-0.81 0.51,-2.85 V 9.2110085 l -0.34,-0.51 q -1.19,-1.7 -2.26,-2.25 -1.06,-0.55 -3.1,-0.55 h -1.44 v -0.68 h 12.66 L 1027.813,52.141008 h 0.34 v -41.74 q 0,-2.0399995 -0.51,-2.8899995 -0.51,-0.85 -2.04,-0.93 l -6.88,-0.68 v -0.68 z"
         id="path8" /><path
         id="rect9"
         style="fill:none"
         d="M 980.63301,5.7180085 H 1039.533 V 65.728008 h -58.89999 z" /><path
         fill="#111111"
         d="m 1061.223,62.510008 -9.18,0.68 v 0.68 h 24.9 v -0.68 l -9.18,-0.68 V 6.1500085 h 12.41 q 2.04,0 2.93,0.64 0.9,0.64 1.66,2.59 l 5.27,13.0899995 0.68,-0.17 -1.87,-18.4399995 h -0.51 q -1.87,0.85 -3.19,1.1 -1.31,0.26 -3.35,0.26 h -32.73 q -2.04,0 -3.36,-0.26 -1.31,-0.25 -3.18,-1.1 h -0.51 l -3.32,18.4399995 0.68,0.17 5.87,-13.0899995 q 0.85,-1.95 1.78,-2.59 0.94,-0.64 2.98,-0.64 h 11.22 z"
         id="path9" /><path
         id="rect10"
         style="fill:none"
         d="m 1039.193,4.3680085 h 52.02 V 64.378008 h -52.02 z" /><path
         fill="#68b6ff"
         d="m 595.88302,82.541008 q 0,1.09 -0.07,1.27 -0.07,0.18 -0.31,0.18 -0.52,0 -1.31,-0.95 l -0.19,-0.23 q -0.61,-0.77 -1.17,-1.61 -0.57,-0.84 -0.78,-1.14 -1.96,-2.72 -2.13,-2.72 -0.13,0 -0.13,2.23 0,2.23 0.18,3.15 0.07,0.33 0.28,0.64 0.21,0.32 0.21,0.42 0,0.28 -1.29,0.28 h -0.29 q -0.9,0 -0.9,-0.23 0,-0.23 0.39,-0.45 0.39,-0.22 0.49,-0.6 0.1,-0.37 0.1,-2.66 l 0.02,-0.95 v -0.92 q 0,-1.35 -0.17,-1.77 -0.08,-0.2 -0.44,-0.48 -0.36,-0.27 -0.36,-0.32 0,-0.34 0.69,-0.34 0.69,0 1.09,0.17 0.4,0.16 0.71,0.45 0.3,0.29 1.33,1.66 1.02,1.36 1.42,1.91 l 0.54,0.74 q 0.97,1.32 1.03,1.32 0.21,0 0.21,-2.21 0,-2.22 -0.09,-2.67 -0.09,-0.46 -0.36,-0.76 -0.28,-0.3 -0.28,-0.33 0,-0.31 0.68,-0.31 h 0.6 q 0.81,0 1.07,0.12 0.15,0.07 0.15,0.27 0,0.02 -0.48,0.5 -0.26,0.25 -0.34,0.65 -0.08,0.39 -0.08,2.74 l -0.02,1.24 z"
         id="path10"
         style="fill:#ffeeaa;stroke:#000000;stroke-width:0.221772;stroke-dasharray:none;stroke-opacity:1" /><path
         id="rect11"
         style="fill:none"
         d="m 588.48301,75.808008 h 8.82 v 8.75 h -8.82 z" /><path
         fill="#68b6ff"
         d="m 601.86302,79.971008 v -0.19 q 0,-0.47 -0.33,-0.85 -0.34,-0.38 -0.83,-0.38 h -0.12 q -0.09,0.02 -0.12,0.02 -0.45,0 -0.84,0.5 -0.4,0.51 -0.4,1.09 v 0.08 q 0,0.2 0.24,0.2 l 0.1,0.02 0.15,0.01 h 0.04 l 0.04,-0.01 1.23,-0.07 0.23,-0.02 q 0.61,0 0.61,-0.4 m -2.64,1.69 q 0,0.72 0.55,1.21 0.54,0.49 1.38,0.49 0.34,0 0.61,-0.1 0.28,-0.1 0.61,-0.24 0.32,-0.14 0.41,-0.14 0.25,0 0.25,0.27 0,0.37 -0.94,0.79 -0.61,0.27 -1.31,0.27 h -0.14 q -1.19,0 -1.98,-0.72 -0.42,-0.39 -0.66,-1 -0.23,-0.62 -0.23,-1.32 v -0.29 q 0,-0.61 0.28,-1.2 0.29,-0.59 0.68,-0.97 0.83,-0.8 1.98,-0.81 1.72,0 2.29,1.34 0.18,0.43 0.18,0.79 v 0.12 q 0,0.44 -0.36,0.59 -0.36,0.15 -1.71,0.24 -1.34,0.1 -1.46,0.13 -0.43,0.11 -0.43,0.55"
         id="path11"
         style="fill:#ffeeaa;stroke:#000000;stroke-width:0.221772;stroke-dasharray:none;stroke-opacity:1" /><path
         id="rect12"
         style="fill:none"
         d="m 598.27301,78.408008 h 5.41 v 6.31 h -5.41 z" /><path
         fill="#68b6ff"
         d="m 612.94302,78.081008 q 0.62,0 0.62,0.34 0,0.07 -0.16,0.33 -0.16,0.25 -0.38,0.7 -0.21,0.45 -0.8,2.14 -0.58,1.69 -0.67,1.86 -0.29,0.56 -0.81,0.56 -0.23,0 -0.47,-0.47 -0.24,-0.46 -0.76,-1.78 -0.52,-1.33 -0.66,-1.33 -0.02,0 -0.58,1.39 -0.57,1.39 -0.68,1.59 -0.3,0.58 -0.74,0.58 -0.43,0 -0.93,-1.48 l -0.15,-0.49 q -0.68,-2.18 -1.27,-3 -0.35,-0.49 -0.35,-0.59 0,-0.11 0.1,-0.19 0.21,-0.19 0.76,-0.19 h 0.24 q 0.77,0 0.95,0.33 0.07,0.12 0.11,0.56 0.05,0.43 0.11,0.82 0.07,0.38 0.37,1.32 0.3,0.94 0.56,0.94 0.21,0 0.51,-0.83 0.3,-0.82 0.3,-1.51 0,-0.17 -0.07,-0.44 -0.06,-0.27 -0.06,-0.38 0,-0.38 0.47,-0.59 0.22,-0.1 0.68,-0.1 0.46,0 0.77,0.36 0.16,0.19 0.16,0.55 l -0.02,0.18 v 0.21 q 0,0.17 0.28,1.1 0.28,0.92 0.4,1.17 0.12,0.25 0.26,0.25 0.27,0 0.63,-1.04 0.36,-1.05 0.36,-1.8 l -0.05,-0.64 q 0,-0.43 0.97,-0.43"
         id="path12"
         style="fill:#ffeeaa;stroke:#000000;stroke-width:0.221772;stroke-dasharray:none;stroke-opacity:1" /><path
         id="rect13"
         style="fill:none"
         d="m 604.653,78.548008 h 9.41 v 5.96 h -9.41 z" /><path
         fill="#68b6ff"
         d="m 620.05302,83.871008 q 0,-0.14 0.32,-0.4 0.33,-0.25 0.45,-0.59 0.12,-0.34 0.12,-1.32 0,-0.97 -0.54,-1.95 -1.29,-2.33 -1.72,-2.92 -0.23,-0.32 -0.62,-0.55 -0.4,-0.22 -0.4,-0.41 0,-0.26 0.42,-0.34 0.43,-0.09 1.77,-0.09 0.67,0 0.67,0.32 0,0.02 -0.11,0.19 -0.11,0.17 -0.11,0.39 0,0.51 1.16,2.55 0.33,0.6 0.42,0.6 0.2,0 0.91,-1.29 0.7,-1.28 0.7,-1.73 0,-0.15 -0.13,-0.42 -0.13,-0.28 -0.13,-0.3 0,-0.36 1.24,-0.36 h 0.43 q 0.75,0 0.75,0.27 0,0.26 -0.36,0.49 -0.54,0.36 -0.74,0.64 -0.59,0.86 -1.68,3.05 -0.45,0.9 -0.45,2.47 0,0.8 0.13,1.01 0.13,0.21 0.42,0.38 0.3,0.18 0.3,0.39 0,0.21 -0.58,0.21 l -1.59,-0.03 q -1.05,0 -1.05,-0.26"
         id="path13"
         style="fill:#ffeeaa;stroke:#000000;stroke-width:0.221772;stroke-dasharray:none;stroke-opacity:1" /><path
         id="rect14"
         style="fill:none"
         d="m 618.15301,75.748008 h 7.99 v 8.91 h -7.99 z" /><path
         fill="#68b6ff"
         d="m 627.02302,80.831008 v 0.24 q 0,1.08 0.42,1.79 0.2,0.33 0.5,0.53 0.31,0.2 0.62,0.2 h 0.13 q 0.57,0 1,-0.57 0.42,-0.56 0.42,-1.59 v -0.45 q 0,-1.02 -0.42,-1.74 -0.43,-0.71 -1.07,-0.71 h -0.2 q -0.58,0 -0.99,0.63 -0.41,0.62 -0.41,1.67 m 4.62,0.03 v 0.31 q 0,0.51 -0.2,1.1 -0.43,1.25 -1.7,1.74 -0.55,0.22 -1.07,0.22 h -0.21 q -1.21,0 -2.02,-0.81 -0.37,-0.37 -0.6,-0.98 -0.23,-0.6 -0.23,-1.28 v -0.11 q 0,-0.61 0.22,-1.24 0.42,-1.23 1.64,-1.7 0.56,-0.22 1.06,-0.22 h 0.32 q 0.57,0 1.11,0.26 1.04,0.48 1.44,1.53 0.24,0.62 0.24,1.18"
         id="path14"
         style="fill:#ffeeaa;stroke:#000000;stroke-width:0.221772;stroke-dasharray:none;stroke-opacity:1" /><path
         id="rect15"
         style="fill:none"
         d="m 626.10301,78.388008 h 6.03 v 6.34 h -6.03 z" /><path
         fill="#68b6ff"
         d="m 635.94302,83.851008 q 0,0.25 -1.15,0.25 h -0.67 l -0.27,-0.01 -0.4,-0.01 q -0.67,0 -0.67,-0.24 0,-0.17 0.3,-0.36 0.3,-0.2 0.41,-0.51 0.1,-0.3 0.1,-1.81 0,-1.52 -0.09,-1.84 -0.1,-0.32 -0.31,-0.46 -0.38,-0.25 -0.38,-0.36 0,-0.12 0.14,-0.21 0.39,-0.26 1.33,-0.26 h 0.12 q 0.36,0 0.51,0.36 0.16,0.37 0.25,0.37 0.1,0 0.33,-0.18 0.23,-0.18 0.56,-0.36 0.32,-0.17 0.72,-0.17 0.4,0 0.62,0.2 0.21,0.21 0.21,0.53 -0.01,0.33 -0.17,0.5 -0.17,0.16 -0.36,0.16 -0.19,0 -0.5,-0.15 -0.31,-0.16 -0.52,-0.16 -0.21,0 -0.46,0.18 -0.24,0.17 -0.42,0.62 -0.17,0.44 -0.17,1.53 0,1.08 0.15,1.39 0.15,0.32 0.47,0.58 0.32,0.26 0.32,0.42"
         id="path15"
         style="fill:#ffeeaa;stroke:#000000;stroke-width:0.221772;stroke-dasharray:none;stroke-opacity:1" /><path
         id="rect16"
         style="fill:none"
         d="m 633.28301,78.528008 h 4.82 v 6.07 h -4.82 z" /><path
         fill="#68b6ff"
         d="m 641.00302,81.411008 q -0.39,0 -0.39,1.12 0,0.39 0.19,0.76 l 0.17,0.3 q 0.09,0.16 0.09,0.23 0,0.22 -1.28,0.22 -1.27,0 -1.27,-0.21 0,-0.06 0.21,-0.35 0.21,-0.29 0.31,-0.68 0.1,-0.39 0.1,-1.82 l 0.01,-0.24 q 0.01,-0.32 0.01,-0.48 l 0.01,-0.48 0.01,-0.49 v -0.98 q 0,-1.84 -0.07,-2.17 -0.07,-0.34 -0.24,-0.51 l -0.14,-0.11 -0.15,-0.09 q -0.18,-0.13 -0.18,-0.25 0,-0.12 0.15,-0.21 0.43,-0.24 1.33,-0.24 h 0.22 q 0.36,0 0.45,0.51 0.03,0.19 0.03,2.84 l -0.01,0.73 q 0,0.87 0.01,0.93 0.07,0.6 0.33,0.6 0.26,0 0.9,-0.69 0.63,-0.68 0.63,-0.98 l -0.02,-0.23 q 0,-0.21 0.17,-0.3 0.17,-0.09 0.7,-0.09 1.21,0 1.21,0.26 0,0.01 -1.12,0.91 -1.12,0.9 -1.12,1.29 0,0.39 1.54,2.19 0.33,0.39 0.74,0.68 0.4,0.28 0.4,0.38 0,0.31 -0.94,0.31 h -0.46 q -0.61,0 -0.88,-0.35 l -0.25,-0.62 q -0.16,-0.38 -0.53,-0.9 -0.56,-0.79 -0.87,-0.79"
         id="path16"
         style="fill:#ffeeaa;stroke:#000000;stroke-width:0.221772;stroke-dasharray:none;stroke-opacity:1" /><path
         id="rect17"
         style="fill:none"
         d="m 638.893,75.228008 h 6.54 v 9.34 h -6.54 z" /><path
         fill="#68b6ff"
         d="m 584.25502,-23.834992 c 5.22666,-0.009 5.21366,-7.84866 -0.013,-7.84 -5.22666,0 -5.22666,7.84 0,7.84 m 0,-6.406 c 3.32266,-0.23466 3.67466,4.74934 0.352,4.984 -3.32267,0.23467 -3.67467,-4.74933 -0.352,-4.984 m -22.273,14.655 0.371,-0.025 4.304,-0.766 8.063,-1.15 c 0.88267,-0.16533 1.567,0.028 2.053,0.58 1.188,1.324 1.15,4.403 1.04,5.48 v 0.074 c -0.13529,3.5879505 -1.46776,7.0273605 -3.785,9.7700005 l -0.05,0.061 c -2.634,3.513 -1.076,5.64 -1.014,5.726 l 7.581,9.1149995 0.161,-1.72 c 0.223,-2.4479995 0.235,-4.1669995 0.198,-5.1689995 v -0.247 l -2.598,-3.105 c -0.1324,-0.29279 -0.14567,-0.6256 -0.037,-0.928 0.358,-1.22400002 1.793,-2.56000002 2.547,-3.166 1.04,1.74399998 0.94,5.565 0.866,8.187 l -0.037,1.855 c -0.0359,1.8688995 -0.16808,3.7347095 -0.396,5.5899995 l -0.037,0.297 0.186,0.223 c 0.284,0.37 0.828,0.507 1.743,0.667 h 0.1 c 0.0987,0.0253 0.20533,0.038 0.32,0.038 1.015,0 1.893,-0.817 2.09,-1.954 l 1.361,-7.8899995 c 0.0247,-0.0747 0.037,-0.15333 0.037,-0.236 l 3.737,-21.1830005 7.816,1.706 5.924,1.744 c 0.33,0.0993 0.64733,0.149 0.952,0.149 0.866,0 1.484,-0.433 1.694,-1.175 0.0993,-0.22267 0.14067,-0.462 0.124,-0.718 -0.05,-0.742 -0.321,-1.2 -0.977,-1.644 -4.365,-3.34 -21.716,-6.567 -22.458,-6.703 h -0.025 c -1.71467,-0.24733 -3.45433,-0.371 -5.219,-0.371 -3.05642,0.008 -6.10342,0.33932 -9.09,0.989 l -7.878,1.41 c -0.618,0.099 -1.125,0.495 -1.446,1.063 -0.27434,0.48827 -0.37482,1.05519 -0.285,1.608 0.173,1.064 1.051,1.83 2.065,1.83 m -0.544,-2.72 c 0.0949,-0.1816 0.26066,-0.31587 0.458,-0.371 l 7.878,-1.398 0.136,-0.012 0.099,-0.025 c 1.508,-0.297 4.625,-0.94 8.607,-0.94 1.69867,0 3.364,0.11567 4.996,0.347 0.606,0.123 17.833,3.351 21.853,6.443 l 0.037,0.024 c 0.346,0.248 0.37,0.334 0.37,0.57 l -0.049,0.185 -0.012,0.037 c -0.025,0.074 -0.05,0.16 -0.334,0.16 -0.188,-0.007 -0.37454,-0.0363 -0.556,-0.086 l -5.937,-1.756 -9.349,-2.04 -3.995,22.6800005 v 0.087 l -0.012,0.124 -1.373,7.8899995 c -0.086,0.482 -0.42,0.767 -0.692,0.767 h -0.074 l -0.112,-0.025 -0.655,-0.124 c 0.206,-1.896 0.32133,-3.623 0.346,-5.1809995 l 0.037,-1.88 c 0.087,-3.34 0.198,-7.48200002 -1.422,-9.449 v -0.445 h -0.717 c -0.68,0 -2.795,1.99099998 -3.6,3.38899998 -0.865,1.48400002 -0.617,2.51000002 -0.271,3.12900002 l 2.399,2.869 c 0.0167,0.7 -0.008,1.70567 -0.074,3.017 l -5.318,-6.393 c -0.099,-0.149 -0.866,-1.497 0.99,-3.97000002 0.383,-0.43299998 4.068,-4.63799998 4.13,-10.67300048 0.05,-0.458 0.396,-4.563 -1.398,-6.555 -0.65933,-0.742 -1.50433,-1.113 -2.535,-1.113 -0.26333,0 -0.527,0.025 -0.791,0.075 l -8.064,1.15 -4.328,0.779 c -0.445,0.074 -0.742,-0.297 -0.791,-0.643 -0.0221,-0.22978 0.0205,-0.46117 0.123,-0.668 m 70.27,8.4840005 c 5.22666,0 5.22666,-7.8400005 0,-7.8400005 -5.22666,0 -5.22666,7.8400005 0,7.8400005 m -0.46892,-2.3732805 c 3.32266,-0.23334 3.95402,-2.37693 0.63135,-2.14359 -3.32266,0.23333 -3.01617,1.53286 0.30649,1.29953 m 9.84508,44.02834 c 5.21866,0.29333 5.65866,-7.53467 0.44,-7.828 -5.21866,-0.29333 -5.65866,7.53467 -0.44,7.828 m 0,-6.394 c 3.32267,-0.23333 3.67267,4.75067 0.35,4.984 -3.32267,0.23333 -3.67267,-4.75067 -0.35,-4.984 m -47.663,-0.445 c 0.008,5.22667 7.848,5.21467 7.84,-0.012 0,-5.22666 -7.84,-5.22666 -7.84,0 m 6.406,0 c 0.23333,3.32267 -4.75067,3.67267 -4.984,0.35 -0.23333,-3.32266 4.75067,-3.67266 4.984,-0.35 m -46.018,-27.8629995 c 0,5.22667 7.84,5.22667 7.84,0 -0.2735,-4.93759 -7.5545,-4.93759 -7.828,0 m 3.92,-2.474 c 3.65674,-0.35973 3.65674,5.33172998 0,4.972 -3.09996,-0.21524 -3.09996,-4.76875 0,-4.984 m 85.258,18.8349995 c -1.32646,-0.15067 -2.51187,0.83255 -2.609,2.164 l -0.705,7.791 0.928,-0.173 c 0.989,-0.185 1.978,0 2.844,0.482 l 0.136,0.075 0.878,0.062 0.705,-7.804 c 0.1188,-1.32356 -0.86443,-2.49005 -2.189,-2.597 m 0.198,8.595 c -0.59161,-0.19039 -1.20854,-0.29052 -1.83,-0.297 h -0.1 l 0.533,-6.01 c 0.25959,-1.11735 1.89386,-0.97258 1.953,0.173 z m -10.673,30.818 c 1.36867,-0.56 2.523,-1.05033 3.463,-1.471 l 0.371,-0.173 1.397,-0.656 0.619,-0.284 0.111,-0.05 c 5.466,-2.856 4.848,-11.55 4.786,-12.23 -0.0333,-2.26 -0.61467,-3.901 -1.744,-4.923 -0.99079,-0.88874 -2.34385,-1.25594 -3.648,-0.99 -1.719,0.397 -3.08,0.644 -3.376,0.706 h -6.888 l -5.232,0.099 c -1.32982,0.007 -2.40032,1.09423 -2.387,2.424 0.0208,1.32193 1.10192,2.38074 2.424,2.374 l 6.988,-0.062 h 3.97 c 0.46133,0 0.82,0.132 1.076,0.396 0.519,0.557 0.58,1.583 0.556,1.917 v 0.074 c 0.124,3.945 -7.024,8.719 -9.77,10.215 -4.217,2.103 -4.39,4.997 -4.403,5.12 v 2.412 l 0.025,0.63 0.149,6.518 c 0.0314,1.30371 1.09492,2.3455 2.399,2.35 h 0.05 c 0.65933,-0.0167 1.21967,-0.264 1.681,-0.742 0.44357,-0.45575 0.68443,-1.07123 0.668,-1.707 l -0.136,-6.357 c 0.47766,-2.1572 2.04932,-3.90716 4.143,-4.613 0.44533,-0.13133 0.98533,-0.32067 1.62,-0.568 v 0.037 z m -3.116,-0.395 c -0.173,0.062 -4.329,1.372 -5.145,5.8 l -0.012,0.062 0.136,6.517 c 1.7e-4,0.53715 -0.42803,0.97644 -0.965,0.99 h -0.012 c -0.53263,3.7e-4 -0.97009,-0.42074 -0.99,-0.953 l -0.136,-7.136 -0.024,-0.37 v -1.98 c 0.024,-0.148 0.309,-2.25 3.636,-3.907 0.432,-0.235 10.685,-5.887 10.536,-11.502 0.013,-0.309 0.037,-1.892 -0.927,-2.93 -0.55575,-0.57482 -1.32779,-0.88915 -2.127,-0.866 h -3.97 l -7,0.074 c -1.10679,-0.18115 -1.10679,-1.77285 0,-1.954 l 5.219,-0.099 h 6.925 l 0.136,-0.012 c 0.013,0 1.522,-0.285 3.488,-0.718 0.0167,-0.016 0.17733,-0.0283 0.482,-0.037 2.746,0 3.179,2.882 3.191,4.6 v 0.05 c 0.012,0.087 0.668,7.965 -3.673,10.66 l -0.495,0.273 -2.263,1.039 -0.346,0.173 -2.338,0.989 -0.742,0.31 c -1.07133,0.428 -1.937,0.737 -2.597,0.927"
         id="path17"
         style="fill:#ffeeaa;stroke:#000000;stroke-width:0.221772;stroke-dasharray:none;stroke-opacity:1" /><path
         fill="#68b6ff"
         d="m 639.78002,56.712008 c -1.21676,-1.351754 -1.89468,-3.103311 -1.905,-4.922 l 0.025,-1.114 -1.014,0.446 c -0.94867,0.412 -2.062,0.882 -3.34,1.41 l -0.482,0.197 0.05,0.52 c 0.272,2.968 2.226,5.602 3.376,6.9 l 5.404,5.059 c 2.38687,1.8759 5.37937,-1.408572 3.29,-3.611 z m 4.513,7.37 c -0.37914,0.418857 -1.02556,0.452385 -1.446,0.075 l -5.244,-4.885 -0.05,-0.05 c -0.779,-0.89 -2.535,-3.129 -2.955,-5.59 l 1.917,-0.791 c 0.2429,1.763701 0.99494,3.418264 2.164,4.761 l 5.553,5.058 c 0.41868,0.37152 0.44632,1.01599 0.061,1.422 m -30.818,-51.904 c -0.173,0.111 -1.36,0.792 -2.35,2.263 -0.952,1.422 -1.93,3.896 -1.113,7.581 l 0.458,3.055 c 0.60943,3.007766 5.09199,2.293167 4.736,-0.755 l -0.383,-2.522 c 0,-0.038 -0.433,-3.463 2.424,-5.504 l 6.32,-4.192 c -0.0955,2.43616 -0.90888,4.789753 -2.338,6.765 -1.40074,1.687699 -2.20099,3.792988 -2.275,5.985 -0.009,0.428667 -6.7e-4,0.882 0.024,1.36 l 0.025,1.51 c 0.0341,1.293637 1.09291,2.324451 2.387,2.324 h 0.074 c 1.3181,-0.03381 2.35913,-1.12991 2.325,-2.448 l -0.012,-0.953 v -0.309 l -0.025,-1.088 c 0.173,-1.422 1.15,-4.291 5.701,-7.878 0.557,-0.309 3.525,-2.3 3.76,-8.9899995 l 0.37,-9.449 c 1.571,1.01399998 4.8,3.611 7.272,9.077 l 0.52,2.1649995 c 0.48532,2.097342 3.2732,2.544418 4.39,0.704 0.334,-0.556 0.433,-1.1999995 0.285,-1.8169995 l -0.631,-2.622 -0.1,-0.445 -0.271,-1.114 -0.012,-0.049 c -0.0892,-0.2950754 -0.19678,-0.5843026 -0.322,-0.866 l -0.05,-0.123 c -0.11533,-0.198 -0.214,-0.4043333 -0.296,-0.619 l -0.05,-0.123 -0.123,-0.248 -0.248,-0.507 -0.025,-0.037 -0.123,-0.26 c -2.053,-3.982 -6.48,-9.324 -15.892,-12.2180005 l -9.312,-2.795 -5.565,-1.806 c -3.05055,-0.989107 -4.53455,3.586893 -1.484,4.576 l 6.79,2.1900005 c 0.618,0.296 6.875,3.684 3.09,12.304 -0.197,0.359 -2.757,4.762 -7.963,7.8779995 m 5.453,-21.4809995 -6.913,-2.2510005 c -0.51234,-0.171372 -0.79269,-0.72184 -0.63,-1.237 0.17631,-0.507031 0.72459,-0.78117 1.236,-0.618 l 5.565,1.805 9.325,2.7950005 c 8.941,2.746 13.11,7.78 15.038,11.514 l 0.087,0.16 0.025,0.05 0.024,0.05 0.396,0.803 c 0.0993,0.2473333 0.21067,0.4866667 0.334,0.718 l 0.16,0.445 0.125,0.321 0.247,1.089 0.111,0.408 0.618,2.646 c 0.0667,0.2473333 0.03,0.4946665 -0.11,0.7419995 -0.18084,0.283815 -0.49347,0.456328 -0.83,0.458 -0.44885,-0.0029 -0.83957,-0.307451 -0.952,-0.7419995 l -0.544,-2.25 -0.037,-0.124 c -3.623,-8.05100002 -8.78,-10.302 -8.99,-10.389 l -0.953,-0.395 -0.445,11.625 c -0.223,6.2939995 -3.018,7.8029995 -3.042,7.8149995 l -0.075,0.038 -0.05,0.037 c -4.798,3.76 -6.071,6.925 -6.294,8.929 v 0.05 l 0.037,2.435 c 0,0.264 -0.0907,0.499 -0.272,0.705 -0.17959,0.183415 -0.4234,0.289903 -0.68,0.297 h -0.025 c -0.52279,-0.0062 -0.95063,-0.417843 -0.977,-0.94 l -0.025,-1.52 v -0.026 c -0.0247,-0.42 -0.0327,-0.824 -0.024,-1.212 v -0.05 c 0.0832,-1.853015 0.75945,-3.6303 1.929,-5.07 l 0.037,-0.049 c 1.92608,-2.603727 2.86007,-5.809197 2.634,-9.04 l -0.123,-1.1749995 -8.41,5.5769995 c -2.16079,1.590173 -3.3145,4.208277 -3.03,6.876 l 0.383,2.548 c 0.24181,1.305198 -1.73377,1.634974 -1.929,0.322 l -0.457,-3.08 -0.013,-0.037 c -1.335,-6.035 2.597,-8.224 2.77,-8.31 l 0.025,-0.025 c 5.738,-3.4379995 8.397,-8.2499995 8.509,-8.4469995 l 0.024,-0.05 c 4.502,-10.19 -3.722,-14.184 -3.809,-14.221 m -1.41,39.6229995 h -5.688 l -0.297,0.025 -8.83,-0.05 c -2.313,-1.236 -6.987,-1.978 -7.556,-2.065 -2.103,-0.643 -7.792,-6.084 -10.562,-8.73 -0.23724,-0.269149 -0.48895,-0.525193 -0.754,-0.767 l -4.168,-3.871 c -0.96737,-0.907393 -2.48897,-0.852152 -3.388,0.123 -0.90637,0.968137 -0.85117,2.489115 0.123,3.389 l 4.156,3.87 c 0.13133,0.132667 0.296,0.269 0.494,0.409 l 3.055,2.671 c 4.09691,3.437811 6.77579,8.270839 7.52,13.567 v 0.062 c 1.13926,6.68005 3.80513,13.006963 7.79,18.488 l 0.829,1.324 0.136,0.21 2.795,3.784 c 0.80212,1.051399 2.29892,1.265863 3.364,0.482 1.0514,-0.797763 1.26137,-2.294777 0.47,-3.351 l -2.721,-3.698 -0.149,-0.198 c -0.29851,-0.423067 -0.61204,-0.835331 -0.94,-1.236 -3.277,-4.341 -2.72,-5.566 -2.634,-5.702 l 0.112,-0.086 c 0.13919,-0.135329 0.32587,-0.21072 0.52,-0.21 0.754,0 1.768,1.038 2.225,1.682 l 1.608,1.73 c 0.24667,0.297333 0.87333,0.982 1.88,2.054 0.593,0.643 1.335,1.434 1.447,1.583 l 3.76,3.92 c 0.95209,0.931659 2.4825,0.903751 3.4,-0.062 0.92334,-0.941952 0.90676,-2.45451 -0.037,-3.376 l -3.5,-3.623 -0.37,-0.371 c -9.375,-8.608 -8.41,-15.434 -7.965,-17.178 h 13.876 c 3.13468,-0.064 3.13468,-4.735004 0,-4.799 m 0,3.377 h -14.878 l -0.185,0.432 c -0.136,0.347 -3.463,8.534 8.162,19.206 l 0.346,0.334 3.5,3.636 c 0.85248,0.892371 -0.39225,2.217223 -1.336,1.422 l -3.648,-3.784 c -0.173,-0.235 -0.618,-0.717 -1.533,-1.682 -0.68,-0.742 -1.62,-1.731 -1.781,-1.966 l -1.608,-1.707 c -0.272,-0.37 -1.707,-2.25 -3.364,-2.25 -0.51133,0 -0.977,0.173 -1.397,0.519 -0.186,0.123 -0.52,0.408 -0.68,0.99 -0.36333,1.442 0.626,3.705 2.968,6.789 l 0.024,0.024 c 0.248,0.285 0.656,0.866 0.866,1.163 l 0.173,0.222 2.72,3.686 c 0.70887,1.025909 -0.75548,2.142281 -1.557,1.187 l -2.734,-3.71 -0.123,-0.186 c -0.27531,-0.458931 -0.5597,-0.912353 -0.853,-1.36 l -0.025,-0.037 c -3.85513,-5.302273 -6.43659,-11.421593 -7.544,-17.883 -0.062,-0.667 -0.915,-8.657 -8.002,-14.494 l -3.091,-2.683 -0.05,-0.05 -0.37,-0.31 -4.156,-3.87 c -0.6202,-0.612511 -0.20333,-1.669648 0.668,-1.694 0.24667,0 0.46933,0.08233 0.668,0.247 l 4.167,3.896 c 0.124,0.123 0.47,0.433 0.643,0.655 l 0.062,0.062 c 4.267,4.081 9.003,8.484 11.23,9.114 l 0.086,0.025 c 0.05,0 5.17,0.755 7.272,1.979 l 0.173,0.099 h 0.185 l 9.065,0.05 h 0.112 l 0.123,-0.025 h 5.702 c 1.12878,-0.184752 1.12878,2.138752 0,1.954 m -72.397,-1.349 -0.556,-1.163 -6.134,9.696 -3.278,5.02 c -1.75667,2.679999 2.26333,5.314999 4.02,2.635 l 2.757,-4.205 5.566,-7.333 -0.223,-0.396 c -0.75057,-1.400941 -1.4681,-2.819332 -2.152,-4.254 m -4.327,11.13 -2.82,4.279 c -0.46901,1.041424 -2.40437,-0.23459 -1.632,-1.076 l 3.29,-5.033 4.76,-7.544 1.41,2.77 z m 32.426,-33.5639995 -1.608,-1.027 c -0.964,-0.643 -5.936,-3.945 -10.29,-6.48 -1.93597,-1.1966449 -4.15481,-1.85815419 -6.43,-1.91700002 -0.63467,0.008667 -1.154,0.05 -1.558,0.124 -0.495,-3.41299998 0.692,-7.44499998 1.843,-10.31399998 l 3.067,-5.6520005 c 0.85075,-1.580625 -0.27132,-3.501599 -2.066,-3.537 -0.84,0 -1.62,0.47 -2.053,1.237 l -1.026,1.608 c -5.405,7.6550005 -5.652,14.9140005 -5.652,15.21000048 v 0.15 l 0.037,0.123 c 1.324,3.53700002 -1.744,15.82999952 -3.03,20.28199952 l -0.012,0.025 c -1.36,5.688 1.026,10.598 1.2,10.97 l 1.348,2.918 0.791,1.62 7.346,11.13 0.754,1.57 c 0.57817,1.197859 2.0169,1.701596 3.216,1.126 1.19081,-0.578048 1.68877,-2.01109 1.113,-3.203 l -3.389,-7.05 -0.024,0.026 -1.064,-2.177 -0.037,-0.062 c -2.548,-4.056 -2.4,-6.616 -2.337,-7.173 1.62,-2.374 1.558,-7.544 1.558,-7.754 v -0.074 l -0.025,-0.074 c -0.767,-3.34 3.067,-10.821 5.009,-14.1229995 l 8.36,4.9469995 2.288,1.545 c 1.10338,0.738846 2.59652,0.44594 3.339,-0.655 0.742,-1.088 0.445,-2.597 -0.668,-3.3399995 m -0.52,2.5479995 c -0.30315,0.446466 -0.90803,0.567886 -1.36,0.273 l -2.3,-1.559 -9.634,-5.6999995 -0.371,0.593 c -1.15484,1.9301421 -2.20762,3.9195427 -3.154,5.9599995 -2.028,4.403333 -2.82333,7.652 -2.386,9.746 0.012,1.484 -0.198,5.392 -1.373,6.962 l -0.087,0.124 -0.037,0.124 c -0.025,0.136 -0.742,3.215 2.474,8.347 l 1.855,3.81 h 0.024 l 2.585,5.354 c 0.32936,1.086939 -1.13255,1.782339 -1.768,0.841 l -0.804,-1.67 -7.322,-11.08 -0.779,-1.57 -1.323,-2.907 -0.012,-0.025 c -1.42966,-3.126033 -1.81974,-6.627995 -1.113,-9.992 0.086,-0.297 1.236,-4.254 2.164,-8.694 1.274,-6.1099995 1.583,-10.2519995 0.89,-12.30499952 0.062,-0.97699998 0.606,-7.54399998 5.405,-14.34600048 l 1.063,-1.645 0.025,-0.037 c 0.26,-0.482 0.792,-0.668 1.237,-0.42 0.47,0.247 0.655,0.853 0.395,1.323 l -3.091,5.689 -0.037,0.074 c -1.299,3.2650005 -2.672,8.0010005 -1.781,11.9340005 l 0.185,0.804 0.78,-0.297 c 0,0 0.68,-0.272 1.854,-0.272 1.237,0 3.24,0.31 5.69,1.731 4.34,2.523 9.275,5.8 10.24,6.4309995 l 1.607,1.04 c 0.44199,0.307257 0.55749,0.911372 0.26,1.36 m 49.953,86.799 h -0.21 l -0.21,-0.01 -1.03,-0.01 -0.2,-0.01 -1.04,-0.01 c -0.62667,0 -1,-0.02333 -1.12,-0.07 -0.19333,-0.06667 -0.29,-0.21 -0.29,-0.43 0,-0.22 0.15667,-0.523333 0.47,-0.91 l 1.16,-1.18 c 0.76,-0.773333 1.25333,-1.33 1.48,-1.67 0.38,-0.573333 0.57,-1.093333 0.57,-1.56 0,-0.473333 -0.12,-0.843333 -0.36,-1.11 -0.24667,-0.266667 -0.54333,-0.4 -0.89,-0.4 -0.6,0 -1.05667,0.303333 -1.37,0.91 -0.22,0.426667 -0.42,0.64 -0.6,0.64 -0.29333,0 -0.44,-0.163333 -0.44,-0.49 0,-0.326667 0.07,-0.59 0.21,-0.79 0.13333,-0.2 0.32333,-0.38 0.57,-0.54 0.55333,-0.366667 1.20667,-0.55 1.96,-0.55 0.75333,0 1.34,0.203333 1.76,0.61 0.42667,0.4 0.64,0.94 0.64,1.62 0,0.52 -0.18,1.02 -0.54,1.5 -0.36,0.48 -0.96,1.09 -1.8,1.83 -0.84,0.74 -1.26,1.193333 -1.26,1.36 0,0.126667 0.35333,0.19 1.06,0.19 0.7,0 1.18333,-0.04333 1.45,-0.13 0.26,-0.08667 0.49667,-0.21 0.71,-0.37 0.21333,-0.166667 0.38,-0.25 0.5,-0.25 0.12667,0 0.19,0.146667 0.19,0.44 0,0.586667 -0.11,0.983333 -0.33,1.19 -0.14667,0.133333 -0.49333,0.2 -1.04,0.2"
         id="path18"
         style="fill:#ffeeaa;stroke:#000000;stroke-width:0.221772;stroke-dasharray:none;stroke-opacity:1" /><path
         id="rect18"
         style="fill:none"
         d="m 619.05302,91.578008 h 5.47 v 8.19 h -5.47 z" /><path
         fill="#68b6ff"
         d="m 626.74302,94.871008 v 0.5 q 0,1.39 0.48,2.4 0.19,0.39 0.5,0.66 0.31,0.26 0.65,0.26 h 0.16 q 0.34,0 0.63,-0.23 0.29,-0.23 0.46,-0.59 0.46,-0.96 0.46,-2.09 l 0.01,-0.19 v -0.59 q 0,-1.44 -0.5,-2.49 -0.17,-0.37 -0.48,-0.6 -0.31,-0.23 -0.69,-0.23 -0.76,0 -1.22,0.89 -0.46,0.88 -0.46,2.3 m 1.79,4.51 h -0.24 q -0.58,0 -1.13,-0.28 -1.13,-0.58 -1.58,-2.03 -0.27,-0.85 -0.27,-1.79 v -0.13 q 0,-1.87 0.98,-3.11 0.84,-1.04 2.19,-1.04 1.35,0 2.22,1 0.46,0.55 0.71,1.36 0.25,0.82 0.25,1.61 v 0.39 q 0,0.77 -0.25,1.56 -0.48,1.54 -1.64,2.15 -0.6,0.31 -1.24,0.31"
         id="path19"
         style="fill:#ffeeaa;stroke:#000000;stroke-width:0.221772;stroke-dasharray:none;stroke-opacity:1" /><path
         id="rect19"
         style="fill:none"
         d="m 625.81302,91.498008 h 6.35 v 8.38 h -6.35 z" /><path
         fill="#68b6ff"
         d="m 637.29302,99.261008 h -0.2 l -0.21,-0.01 -1.03,-0.01 -0.21,-0.01 -1.03,-0.01 q -0.94,0 -1.13,-0.07 -0.28,-0.1 -0.28,-0.43 0,-0.33 0.47,-0.91 l 1.15,-1.18 q 1.15,-1.16 1.48,-1.67 0.57,-0.86 0.57,-1.56 0,-0.71 -0.36,-1.11 -0.36,-0.4 -0.88,-0.4 -0.91,0 -1.37,0.91 -0.33,0.64 -0.6,0.64 -0.44,0 -0.44,-0.49 0,-0.49 0.2,-0.79 0.21,-0.3 0.58,-0.54 0.82,-0.55 1.95,-0.55 1.13,0 1.77,0.61 0.63,0.6 0.63,1.62 0,0.78 -0.54,1.5 -0.54,0.72 -1.79,1.83 -1.26,1.11 -1.26,1.36 0,0.19 1.05,0.19 1.06,0 1.45,-0.13 0.4,-0.13 0.72,-0.37 0.32,-0.25 0.5,-0.25 0.18,0 0.18,0.44 0,0.88 -0.33,1.19 -0.21,0.2 -1.04,0.2"
         id="path20"
         style="fill:#ffeeaa;stroke:#000000;stroke-width:0.221772;stroke-dasharray:none;stroke-opacity:1" /><path
         id="rect20"
         style="fill:none"
         d="m 633.703,91.578008 h 5.46 v 8.19 h -5.46 z" /><path
         fill="#68b6ff"
         d="m 642.38302,92.251008 h -0.02 q -0.95,0 -0.95,1.22 0,0.54 0.19,0.69 0.1,0.07 0.71,0.07 1.37,0 2.17,0.65 0.48,0.38 0.72,0.89 0.24,0.52 0.24,0.98 v 0.21 q 0,1.18 -0.89,1.98 -0.89,0.79 -2.25,0.79 h -0.2 q -0.73,0 -1.36,-0.29 -0.63,-0.29 -0.63,-0.72 v -0.17 q 0,-0.45 0.52,-0.45 0.22,0 0.74,0.39 0.52,0.39 1.09,0.39 0.74,0 1.2,-0.65 0.32,-0.46 0.32,-1.32 0,-0.35 -0.17,-0.73 -0.18,-0.38 -0.48,-0.62 -0.54,-0.44 -1.61,-0.44 l -0.19,0.02 h -0.42 q -0.3,0 -0.43,-0.22 -0.14,-0.23 -0.14,-0.92 0,-0.69 0.17,-1.52 0.18,-0.83 0.32,-1.01 0.24,-0.29 1.83,-0.29 0.97,0 1.4,-0.08 l 0.18,-0.04 q 0.23,-0.05 0.34,-0.05 0.45,0 0.45,0.47 0,0.83 -1,0.83 -0.37,0 -0.64,-0.02 l -0.41,-0.02 q -0.61,-0.02 -0.8,-0.02"
         id="path21"
         style="fill:#ffeeaa;stroke:#000000;stroke-width:0.221772;stroke-dasharray:none;stroke-opacity:1" /><path
         id="rect21"
         style="fill:none"
         d="m 640.61301,91.508008 h 5.33 v 8.720002 h -5.33 z" /><path
         style="fill:#ffeeaa;stroke:none;stroke-width:1.33581;stroke-linecap:round;stroke-linejoin:round;stroke-dasharray:none;stroke-opacity:1"
         d="m 629.41977,-11.708949 c -2.3112,-6.315145 12.61661,-0.922135 0,0 z"
         id="path26" /></g></g></svg>
