<svg xmlns="http://www.w3.org/2000/svg" version="1.1" xmlns:xlink="http://www.w3.org/1999/xlink" width="2000" height="120" viewBox="0 0 2000 120"><svg xml:space="preserve" width="2000" height="120" data-version="2" data-id="lg_VG2UgHcmeycbTFDhF0" viewBox="0 0 568 120" x="0" y="0"><rect width="100%" height="100%" fill="transparent"></rect><g transform="matrix(-4.2649 0 0 4.2649 197.37 60.93)"><filter id="a" width="140%" height="140%" x="-20%" y="-20%"><feGaussianBlur in="SourceAlpha"></feGaussianBlur><feOffset result="oBlur"></feOffset><feFlood flood-color="#000" flood-opacity="1"></feFlood><feComposite in2="oBlur" operator="in"></feComposite><feMerge><feMergeNode></feMergeNode><feMergeNode in="SourceGraphic"></feMergeNode></feMerge></filter><path d="M29.85 36.34c-4.52 0-8.52 3.4-10.59 6.32L5 63.67h31.75l16.07-.01c3.65 0 6.71-2.6 7.44-6.04h4c3.66 0 6.72-2.6 7.45-6.04h3.7c3.66 0 6.73-2.6 7.45-6.04h4.52c4.2 0 7.62-3.42 7.62-7.62v-1.57zm57.54 6.04H56.35v3.15h23.23a4.5 4.5 0 0 1-4.16 2.89H50.69v3.15h17.74a4.5 4.5 0 0 1-4.17 2.89H43.91v3.15h13.07a4.5 4.5 0 0 1-4.17 2.89l-16.06.01h-25.8l10.9-16.05c1.3-1.85 4.45-4.97 8-4.97h61.71a4.5 4.5 0 0 1-4.17 2.89" filter="url(#a)" paint-order="stroke" transform="translate(-50 -50)"></path></g><path fill="#d3d0d0" d="M284.438.791c19.277 0 36.337 14.501 45.165 26.955l60.817 89.605H255.01l-68.537-.042c-15.567 0-28.617-11.09-31.73-25.76h-17.06c-15.61 0-28.66-11.09-31.774-25.76h-15.78c-15.61 0-28.703-11.09-31.774-25.76H39.078C21.165 40.029 6.58 25.443 6.58 7.53V.834zM39.035 26.551h132.383v13.435H72.344A19.192 19.192 0 0 0 90.086 52.31h105.471v13.435h-75.66a19.192 19.192 0 0 0 17.786 12.325h86.79v13.435h-55.742a19.192 19.192 0 0 0 17.785 12.325l68.494.043h110.034l-46.487-68.452c-5.544-7.89-18.979-21.196-34.12-21.196H21.252A19.192 19.192 0 0 0 39.035 26.55"></path><path d="M195.556 96.133q-2.52 0-5.89-.67-3.36-.67-5.73-2.74l3.33-7.62q1.26 1.48 2.92 2.29 1.67.82 4.18.82 2.22 0 3.67-.78 1.44-.78 2.14-2.92.7-2.15.7-6.22v-37.29h8.22v39.36q0 5.92-1.85 9.37-1.85 3.44-4.92 4.92t-6.77 1.48" paint-order="stroke"></path><rect width="25.16" height="55.13" x="-12.58" y="-27.57" fill="none" rx="0" ry="0" transform="translate(197.02 69.07)"></rect><path d="M239.215 96.133q-7.11 0-11.36-2.89-4.26-2.89-6.14-8.29-1.89-5.4-1.89-12.8v-31.15h8.29v31.3q0 8.66 2.62 12.39 2.63 3.74 8.48 3.74 5.84 0 8.43-3.63 2.59-3.62 2.59-12.5v-31.3h8.36v31.15q0 11.4-4.73 17.69-4.74 6.29-14.65 6.29" paint-order="stroke"></path><rect width="38.77" height="55.13" x="-19.39" y="-27.57" fill="none" rx="0" ry="0" transform="translate(239.71 69.07)"></rect><path d="m308.915 95.393-31.82-35.23.23 5.92v29.31h-8.29v-54.47h1.03l31.97 35.67-.29-6.22v-29.37h8.28v54.39Z" paint-order="stroke"></path><rect width="40.99" height="54.47" x="-20.5" y="-27.23" fill="none" rx="0" ry="0" transform="translate(290.03 68.66)"></rect><path d="M320.756 95.393v-54.39h23.83v7.25h-15.61v15.02h12.58v7.4h-12.58v17.39h18.05v7.33Z" paint-order="stroke"></path><rect width="26.27" height="54.39" x="-13.13" y="-27.2" fill="none" rx="0" ry="0" transform="translate(334.39 68.7)"></rect><path d="M355.395 95.393v-54.39h11.98q7.11 0 11.4 2.07t6.22 5.73q1.92 3.67 1.92 8.4 0 8.66-5.03 13.36-5.03 4.7-15.25 4.7h-2.88v20.13Zm8.36-27.46h3.11q4.88 0 7.4-1.55 2.51-1.56 3.4-3.85.89-2.29.89-4.44 0-2.59-.96-4.81-.97-2.22-3.33-3.63-2.37-1.4-6.66-1.4h-3.85Z" paint-order="stroke"></path><rect width="31.52" height="54.39" x="-15.76" y="-27.2" fill="none" rx="0" ry="0" transform="translate(371.66 68.7)"></rect><path d="M419.995 96.133q-5.55 0-10.47-1.93-4.92-1.92-8.7-5.58-3.77-3.67-5.95-8.85-2.19-5.18-2.19-11.69 0-6.59 2.19-11.77 2.18-5.18 5.99-8.8 3.81-3.63 8.73-5.51 4.92-1.89 10.4-1.89 5.47 0 10.4 1.89 4.92 1.88 8.73 5.51 3.81 3.62 5.99 8.8 2.18 5.18 2.18 11.77 0 6.51-2.18 11.69t-5.96 8.85q-3.77 3.66-8.69 5.58-4.92 1.93-10.47 1.93m0-7.48q5.03 0 9.25-2.37 4.22-2.36 6.73-6.91 2.52-4.56 2.52-11.22 0-6.73-2.52-11.28-2.51-4.55-6.69-6.88-4.19-2.33-9.29-2.33-5.11 0-9.29 2.33-4.18 2.33-6.7 6.88-2.51 4.55-2.51 11.28 0 6.66 2.59 11.22 2.59 4.55 6.81 6.91 4.21 2.37 9.1 2.37" paint-order="stroke"></path><rect width="54.61" height="56.02" x="-27.3" y="-28.01" fill="none" rx="0" ry="0" transform="translate(420.49 68.62)"></rect><path d="M456.776 95.393v-54.39h8.28v54.39Z" paint-order="stroke"></path><rect width="8.28" height="54.39" x="-4.14" y="-27.2" fill="none" rx="0" ry="0" transform="translate(461.42 68.7)"></rect><path d="m516.046 95.393-31.82-35.23.22 5.92v29.31h-8.29v-54.47h1.04l31.97 35.67-.3-6.22v-29.37h8.29v54.39Z" paint-order="stroke"></path><rect width="41" height="54.47" x="-20.5" y="-27.23" fill="none" rx="0" ry="0" transform="translate(497.16 68.66)"></rect><path d="M537.356 95.393v-47.14h-13.91v-7.25h36.19v7.25h-14.06v47.14Z" paint-order="stroke"></path><rect width="36.19" height="54.39" x="-18.09" y="-27.2" fill="none" rx="0" ry="0" transform="translate(542.04 68.7)"></rect><path fill="#29c2b6" d="M197.465 94.093q-2.52 0-5.88-.67-3.37-.67-5.74-2.74l3.33-7.62q1.26 1.48 2.92 2.29 1.67.82 4.18.82 2.22 0 3.67-.78 1.44-.78 2.14-2.92.71-2.15.71-6.22v-37.29h8.21v39.36q0 5.92-1.85 9.36-1.85 3.45-4.92 4.93-3.07 1.48-6.77 1.48" paint-order="stroke"></path><rect width="25.16" height="55.13" x="-12.58" y="-27.57" fill="none" rx="0" ry="0" transform="translate(198.93 67.03)"></rect><path fill="#29c2b6" d="M241.125 94.093q-7.11 0-11.36-2.89-4.26-2.89-6.14-8.29-1.89-5.4-1.89-12.8v-31.15h8.29v31.3q0 8.66 2.63 12.39 2.62 3.74 8.47 3.74 5.84 0 8.43-3.63 2.59-3.62 2.59-12.5v-31.3h8.37v31.15q0 11.4-4.74 17.69-4.74 6.29-14.65 6.29" paint-order="stroke"></path><rect width="38.78" height="55.13" x="-19.39" y="-27.57" fill="none" rx="0" ry="0" transform="translate(241.63 67.03)"></rect><path fill="#29c2b6" d="m310.835 93.353-31.82-35.23.22 5.92v29.31h-8.29v-54.47h1.04l31.96 35.67-.29-6.22v-29.37h8.29v54.39Z" paint-order="stroke"></path><rect width="41" height="54.47" x="-20.5" y="-27.23" fill="none" rx="0" ry="0" transform="translate(291.94 66.62)"></rect><path fill="#29c2b6" d="M322.675 93.353v-54.39h23.82v7.25h-15.61v15.02h12.58v7.4h-12.58v17.39h18.06v7.33Z" paint-order="stroke"></path><rect width="26.27" height="54.39" x="-13.13" y="-27.2" fill="none" rx="0" ry="0" transform="translate(336.31 66.66)"></rect><path fill="#29c2b6" d="M357.305 93.353v-54.39h11.99q7.1 0 11.39 2.07 4.29 2.07 6.22 5.73 1.92 3.67 1.92 8.4 0 8.66-5.03 13.36-5.03 4.7-15.24 4.7h-2.89v20.13Zm8.36-27.46h3.11q4.88 0 7.4-1.55 2.51-1.56 3.4-3.85.89-2.29.89-4.44 0-2.59-.96-4.81-.96-2.22-3.33-3.63-2.37-1.4-6.66-1.4h-3.85Z" paint-order="stroke"></path><rect width="31.52" height="54.39" x="-15.76" y="-27.2" fill="none" rx="0" ry="0" transform="translate(373.56 66.66)"></rect><path fill="#29c2b6" d="M421.905 94.093q-5.55 0-10.47-1.93-4.92-1.92-8.7-5.59-3.77-3.66-5.95-8.84-2.19-5.18-2.19-11.69 0-6.59 2.19-11.77 2.18-5.18 5.99-8.8 3.81-3.63 8.73-5.52 4.92-1.88 10.4-1.88t10.4 1.88q4.92 1.89 8.73 5.52 3.81 3.62 5.99 8.8 2.19 5.18 2.19 11.77 0 6.51-2.19 11.69-2.18 5.18-5.95 8.84-3.78 3.67-8.7 5.59-4.92 1.93-10.47 1.93m0-7.48q5.03 0 9.25-2.37 4.22-2.36 6.73-6.92 2.52-4.55 2.52-11.21 0-6.73-2.52-11.28-2.51-4.55-6.69-6.88-4.18-2.33-9.29-2.33-5.11 0-9.29 2.33-4.18 2.33-6.69 6.88-2.52 4.55-2.52 11.28 0 6.66 2.59 11.21 2.59 4.56 6.81 6.92 4.22 2.37 9.1 2.37" paint-order="stroke"></path><rect width="54.62" height="56.02" x="-27.31" y="-28.01" fill="none" rx="0" ry="0" transform="translate(422.4 66.58)"></rect><path fill="#29c2b6" d="M458.685 93.353v-54.39h8.29v54.39Z" paint-order="stroke"></path><rect width="8.29" height="54.39" x="-4.14" y="-27.2" fill="none" rx="0" ry="0" transform="translate(463.33 66.66)"></rect><path fill="#29c2b6" d="m517.955 93.353-31.82-35.23.22 5.92v29.31h-8.28v-54.47h1.03l31.97 35.67-.3-6.22v-29.37h8.29v54.39Z" paint-order="stroke"></path><rect width="40.99" height="54.47" x="-20.5" y="-27.23" fill="none" rx="0" ry="0" transform="translate(499.07 66.62)"></rect><path fill="#29c2b6" d="M539.265 93.353v-47.14h-13.91v-7.25h36.19v7.25h-14.06v47.14Z" paint-order="stroke"></path><rect width="36.19" height="54.39" x="-18.09" y="-27.2" fill="none" rx="0" ry="0" transform="translate(543.95 66.66)"></rect></svg></svg>